<!--
  Copyright 2026 Muhammad Salah
  SPDX-License-Identifier: Apache-2.0
-->
<svg xmlns="http://www.w3.org/2000/svg" xmlns:xlink="http://www.w3.org/1999/xlink" version="1.1" data-diagram-type="DESCRIPTION" style="width:801px;height:1539px;background:#FFFFFF;" width="801px" height="1539px" viewBox="0 0 801 1539" zoomAndPan="magnify" preserveAspectRatio="none" contentStyleType="text/css"><?plantuml 1.2026.7?><defs/><g font-family="sans-serif" lengthAdjust="spacing"><g class="title" data-source-line="7"><text x="248.766" y="23.535" fill="#000" font-size="14" textLength="296.905" font-weight="700">Configuration — Environments &amp; Storage</text></g><!--cluster Environments — where Keycloak runs--><g class="cluster" data-qualified-name="Environments . where Keycloak runs" id="ent0003" data-source-line="12"><rect x="113.51" y="108.948" width="618.18" height="539" fill="none" style="stroke:#181818;stroke-width:1;" rx="2.5" ry="2.5"/><text x="286.083" y="124.483" fill="#000" font-size="14" textLength="273.034" font-weight="700">Environments — where Keycloak runs</text></g><!--cluster Storage — where snapshots live--><g class="cluster" data-qualified-name="Storage . where snapshots live" id="ent0011" data-source-line="22"><rect x="122.06" y="831.948" width="601.44" height="609" fill="none" style="stroke:#181818;stroke-width:1;" rx="2.5" ry="2.5"/><text x="307.27" y="847.483" fill="#000" font-size="14" textLength="231.021" font-weight="700">Storage — where snapshots live</text></g><!--entity E1--><g class="entity" data-qualified-name="Environments . where Keycloak runs.E1" id="ent0004" data-source-line="13"><ellipse cx="257.068" cy="343.951" rx="81.218" ry="25.413" fill="#ECF0F1" style="stroke:#2C3E50;stroke-width:0.5;"/><text x="199.526" y="341.758" fill="#000" font-size="14" textLength="115.083">UC-E1 Add Local</text><text x="209.514" y="358.246" fill="#000" font-size="14" textLength="95.108">(server folder)</text></g><!--entity E2--><g class="entity" data-qualified-name="Environments . where Keycloak runs.E2" id="ent0005" data-source-line="14"><ellipse cx="257.069" cy="428.95" rx="99.539" ry="24.992" fill="#ECF0F1" style="stroke:#2C3E50;stroke-width:0.5;"/><text x="204.351" y="423.515" fill="#000" font-size="14" textLength="105.438">UC-E2 Add SSH</text><text x="184.691" y="440.004" fill="#000" font-size="14" textLength="144.758">(host + server folder)</text></g><!--entity E3--><g class="entity" data-qualified-name="Environments . where Keycloak runs.E3" id="ent0006" data-source-line="15"><ellipse cx="257.07" cy="514.95" rx="97.77" ry="25.992" fill="#ECF0F1" style="stroke:#2C3E50;stroke-width:0.5;"/><text x="193.051" y="510.985" fill="#000" font-size="14" textLength="128.037">UC-E3 Add Docker</text><text x="189.107" y="527.474" fill="#000" font-size="14" textLength="135.926">(service / container)</text></g><!--entity E4--><g class="entity" data-qualified-name="Environments . where Keycloak runs.E4" id="ent0007" data-source-line="16"><ellipse cx="257.066" cy="603.95" rx="127.556" ry="27.911" fill="#ECF0F1" style="stroke:#2C3E50;stroke-width:0.5;"/><text x="162.949" y="600.621" fill="#000" font-size="14" textLength="188.234">UC-E4 Add K8s / OpenShift</text><text x="164.46" y="617.109" fill="#000" font-size="14" textLength="185.213">(namespace + deployment)</text></g><!--entity E5--><g class="entity" data-qualified-name="Environments . where Keycloak runs.E5" id="ent0008" data-source-line="17"><ellipse cx="653.528" cy="428.95" rx="62.158" ry="25.792" fill="#ECF0F1" style="stroke:#2C3E50;stroke-width:0.5;"/><text x="614.836" y="424.697" fill="#000" font-size="14" textLength="77.383">UC-E5 Test</text><text x="610.731" y="441.186" fill="#000" font-size="14" textLength="85.593">environment</text></g><!--entity E6--><g class="entity" data-qualified-name="Environments . where Keycloak runs.E6" id="ent0009" data-source-line="18"><ellipse cx="257.067" cy="169.952" rx="82.367" ry="26.224" fill="#ECF0F1" style="stroke:#2C3E50;stroke-width:0.5;"/><text x="201.638" y="166.319" fill="#000" font-size="14" textLength="110.858">UC-E6/7/8 Edit,</text><text x="200.719" y="182.807" fill="#000" font-size="14" textLength="112.697">duplicate, delete</text></g><!--entity E9--><g class="entity" data-qualified-name="Environments . where Keycloak runs.E9" id="ent0010" data-source-line="19"><ellipse cx="257.071" cy="256.945" rx="69.721" ry="26.187" fill="#ECF0F1" style="stroke:#2C3E50;stroke-width:0.5;"/><text x="209.626" y="253.631" fill="#000" font-size="14" textLength="94.89">UC-E9 Review</text><text x="210.706" y="270.119" fill="#000" font-size="14" textLength="92.729">environments</text></g><!--entity S1--><g class="entity" data-qualified-name="Storage . where snapshots live.S1" id="ent0012" data-source-line="23"><ellipse cx="257.071" cy="1232.946" rx="73.361" ry="24.117" fill="#ECF0F1" style="stroke:#2C3E50;stroke-width:0.5;"/><text x="202.134" y="1232.74" fill="#000" font-size="14" textLength="109.874">UC-S1 Add Disk</text><text x="232.451" y="1249.228" fill="#000" font-size="14" textLength="49.239">(folder)</text></g><!--entity S2--><g class="entity" data-qualified-name="Storage . where snapshots live.S2" id="ent0013" data-source-line="24"><ellipse cx="257.073" cy="975.951" rx="70.633" ry="24.162" fill="#ECF0F1" style="stroke:#2C3E50;stroke-width:0.5;"/><text x="204.378" y="975.673" fill="#000" font-size="14" textLength="105.39">UC-S2 Add SSH</text><text x="232.453" y="992.161" fill="#000" font-size="14" textLength="49.239">(folder)</text></g><!--entity S3--><g class="entity" data-qualified-name="Storage . where snapshots live.S3" id="ent0014" data-source-line="25"><ellipse cx="257.074" cy="1060.943" rx="81.414" ry="25.465" fill="#ECF0F1" style="stroke:#2C3E50;stroke-width:0.5;"/><text x="208.867" y="1056.213" fill="#000" font-size="14" textLength="96.414">UC-S3 Add S3</text><text x="199.522" y="1072.702" fill="#000" font-size="14" textLength="115.104">(bucket + prefix)</text></g><!--entity S4--><g class="entity" data-qualified-name="Storage . where snapshots live.S4" id="ent0015" data-source-line="26"><ellipse cx="257.073" cy="1147.949" rx="119.003" ry="26.201" fill="#ECF0F1" style="stroke:#2C3E50;stroke-width:0.5;"/><text x="164.419" y="1146.977" fill="#000" font-size="14" textLength="185.309">UC-S4 Add Azure / Azurite</text><text x="190.621" y="1163.466" fill="#000" font-size="14" textLength="132.904">(container + prefix)</text></g><!--entity S5--><g class="entity" data-qualified-name="Storage . where snapshots live.S5" id="ent0016" data-source-line="27"><ellipse cx="653.534" cy="1147.95" rx="53.964" ry="24.732" fill="#ECF0F1" style="stroke:#2C3E50;stroke-width:0.5;"/><text x="614.866" y="1146.782" fill="#000" font-size="14" textLength="77.335">UC-S5 Test</text><text x="628.053" y="1163.27" fill="#000" font-size="14" textLength="50.962">storage</text></g><!--entity S6--><g class="entity" data-qualified-name="Storage . where snapshots live.S6" id="ent0017" data-source-line="28"><ellipse cx="257.075" cy="1315.952" rx="58.145" ry="24.203" fill="#ECF0F1" style="stroke:#2C3E50;stroke-width:0.5;"/><text x="214.193" y="1315.609" fill="#000" font-size="14" textLength="85.764">UC-S6 Edit /</text><text x="236.327" y="1332.097" fill="#000" font-size="14" textLength="41.494">delete</text></g><!--entity S7--><g class="entity" data-qualified-name="Storage . where snapshots live.S7" id="ent0018" data-source-line="29"><ellipse cx="257.074" cy="1399.949" rx="48.624" ry="24.841" fill="#ECF0F1" style="stroke:#2C3E50;stroke-width:0.5;"/><text x="222.631" y="1398.614" fill="#000" font-size="14" textLength="68.886">UC-S7 Set</text><text x="233.343" y="1415.102" fill="#000" font-size="14" textLength="47.462">default</text></g><!--entity S8--><g class="entity" data-qualified-name="Storage . where snapshots live.S8" id="ent0019" data-source-line="30"><ellipse cx="257.067" cy="891.945" rx="66.027" ry="24.557" fill="#ECF0F1" style="stroke:#2C3E50;stroke-width:0.5;"/><text x="208.859" y="891.047" fill="#000" font-size="14" textLength="96.414">UC-S8 Browse</text><text x="227.788" y="907.535" fill="#000" font-size="14" textLength="58.557">contents</text></g><!--entity OP--><g class="entity" data-qualified-name="OP" id="ent0001" data-source-line="9"><ellipse cx="36.256" cy="862.208" rx="8" ry="8" fill="#F1F1F1" style="stroke:#181818;stroke-width:0.5;"/><path d="M36.256,870.208 L36.256,897.208 M23.256,878.208 L49.256,878.208 M36.256,897.208 L23.256,912.208 M36.256,897.208 L49.256,912.208" style="stroke:#181818;stroke-width:0.5;" fill="none"/><text x="6" y="927.243" fill="#000" font-size="14" textLength="60.512">Operator</text></g><!--entity KC--><g class="entity" data-qualified-name="KC" id="ent0002" data-source-line="10"><ellipse cx="653.533" cy="672.208" rx="8" ry="8" fill="#F1F1F1" style="stroke:#181818;stroke-width:0.5;"/><path d="M653.533,680.208 L653.533,707.208 M640.533,688.208 L666.533,688.208 M653.533,707.208 L640.533,722.208 M653.533,707.208 L666.533,722.208" style="stroke:#181818;stroke-width:0.5;" fill="none"/><text x="611.82" y="737.243" fill="#000" font-size="14" textLength="83.426">OS Keychain</text></g><g class="entity" data-qualified-name="GMN49" id="ent0050" data-source-line="66"><path d="M520.62,775.638 L520.62,816.259 A0,0 0 0 0 520.62,816.259 L786.436,816.259 A0,0 0 0 0 786.436,816.259 L786.436,785.638 L776.436,775.638 L657.53,775.638 L653.53,740.678 L649.53,775.638 L520.62,775.638 A0,0 0 0 0 520.62,775.638" style="stroke:#181818;stroke-width:0.5;" fill="#FEFFDD"/><path d="M776.436,775.638 L776.436,785.638 L786.436,785.638 L776.436,775.638" style="stroke:#181818;stroke-width:0.5;" fill="#FEFFDD"/><text x="526.62" y="793.207" fill="#000" font-size="13" textLength="244.816">config.yaml holds only a credentialRef.</text><text x="526.62" y="808.517" fill="#000" font-size="13" textLength="223.939">No secret value is ever written to it.</text></g><!--link OP to E1--><g class="link" data-entity-1="ent0001" data-entity-2="ent0004" id="lnk20" data-source-line="33" data-link-type="dependency"><path d="M37.2,853.448 C37.84,747.818 45.15,456.688 105.51,386.948 C123.57,366.088 146.094,356.072 172.594,350.302" style="stroke:#181818;stroke-width:1;" fill="none" id="OP-to-E1"/><polygon points="177.48,349.238,167.835,347.245,172.594,350.302,169.537,355.061,177.48,349.238" fill="#181818" style="stroke:#181818;stroke-width:1;stroke-linejoin:miter;stroke-miterlimit:10;"/></g><!--link OP to E2--><g class="link" data-entity-1="ent0001" data-entity-2="ent0005" id="lnk21" data-source-line="34" data-link-type="dependency"><path d="M38.39,853.288 C41.89,760.388 55.56,528.118 105.51,471.948 C120.69,454.888 137.311,445.8 159.251,439.39" style="stroke:#181818;stroke-width:1;" fill="none" id="OP-to-E2"/><polygon points="164.05,437.988,154.289,436.673,159.251,439.39,156.533,444.352,164.05,437.988" fill="#181818" style="stroke:#181818;stroke-width:1;stroke-linejoin:miter;stroke-miterlimit:10;"/></g><!--link OP to E3--><g class="link" data-entity-1="ent0001" data-entity-2="ent0006" id="lnk22" data-source-line="35" data-link-type="dependency"><path d="M40.24,853.258 C47.04,774.968 66.23,601.598 105.51,558.948 C121.38,541.728 138.767,532.499 161.257,525.989" style="stroke:#181818;stroke-width:1;" fill="none" id="OP-to-E3"/><polygon points="166.06,524.598,156.303,523.258,161.257,525.989,158.527,530.943,166.06,524.598" fill="#181818" style="stroke:#181818;stroke-width:1;stroke-linejoin:miter;stroke-miterlimit:10;"/></g><!--link OP to E4--><g class="link" data-entity-1="ent0001" data-entity-2="ent0007" id="lnk23" data-source-line="36" data-link-type="dependency"><path d="M66.54,853.408 C111.26,794.548 192.485,687.639 231.815,635.879" style="stroke:#181818;stroke-width:1;" fill="none" id="OP-to-E4"/><polygon points="234.84,631.898,226.21,636.644,231.815,635.879,232.58,641.484,234.84,631.898" fill="#181818" style="stroke:#181818;stroke-width:1;stroke-linejoin:miter;stroke-miterlimit:10;"/></g><!--link OP to E5--><g class="link" data-entity-1="ent0001" data-entity-2="ent0008" id="lnk24" data-source-line="37" data-link-type="dependency"><path d="M37.67,853.408 C39.69,704.788 50.69,174.738 105.51,125.948 C198.18,43.488 271.53,74.988 384.62,125.948 C514.9,184.658 605.028,337.07 637.468,398.93" style="stroke:#181818;stroke-width:1;" fill="none" id="OP-to-E5"/><polygon points="639.79,403.358,639.153,393.53,637.468,398.93,632.068,397.245,639.79,403.358" fill="#181818" style="stroke:#181818;stroke-width:1;stroke-linejoin:miter;stroke-miterlimit:10;"/></g><!--link OP to E6--><g class="link" data-entity-1="ent0001" data-entity-2="ent0009" id="lnk25" data-source-line="38" data-link-type="dependency"><path d="M38.61,853.368 C43.76,716.818 63.91,262.038 105.51,212.948 C123.09,192.218 145.02,182.206 171.18,176.376" style="stroke:#181818;stroke-width:1;" fill="none" id="OP-to-E6"/><polygon points="176.06,175.288,166.405,173.342,171.18,176.376,168.146,181.15,176.06,175.288" fill="#181818" style="stroke:#181818;stroke-width:1;stroke-linejoin:miter;stroke-miterlimit:10;"/></g><!--link OP to E9--><g class="link" data-entity-1="ent0001" data-entity-2="ent0010" id="lnk26" data-source-line="39" data-link-type="dependency"><path d="M39.25,853.278 C46,728.638 69.64,343.068 105.51,300.948 C125.82,277.108 153.336,266.677 182.916,261.457" style="stroke:#181818;stroke-width:1;" fill="none" id="OP-to-E9"/><polygon points="187.84,260.588,178.282,258.213,182.916,261.457,179.672,266.091,187.84,260.588" fill="#181818" style="stroke:#181818;stroke-width:1;stroke-linejoin:miter;stroke-miterlimit:10;"/></g><!--link OP to S1--><g class="link" data-entity-1="ent0001" data-entity-2="ent0012" id="lnk27" data-source-line="40" data-link-type="dependency"><path d="M41.11,930.478 C49.11,1002.728 69.79,1154.698 105.51,1191.948 C125.95,1213.268 151.352,1222.969 179.452,1228.109" style="stroke:#181818;stroke-width:1;" fill="none" id="OP-to-S1"/><polygon points="184.37,1229.008,176.237,1223.454,179.452,1228.109,174.797,1231.324,184.37,1229.008" fill="#181818" style="stroke:#181818;stroke-width:1;stroke-linejoin:miter;stroke-miterlimit:10;"/></g><!--link OP to S2--><g class="link" data-entity-1="ent0001" data-entity-2="ent0013" id="lnk28" data-source-line="41" data-link-type="dependency"><path d="M66.85,912.658 C78.5,920.138 92.25,928.158 105.51,933.948 C134.36,946.548 163.116,955.16 191.266,962.11" style="stroke:#181818;stroke-width:1;" fill="none" id="OP-to-S2"/><polygon points="196.12,963.308,188.341,957.268,191.266,962.11,186.424,965.034,196.12,963.308" fill="#181818" style="stroke:#181818;stroke-width:1;stroke-linejoin:miter;stroke-miterlimit:10;"/></g><!--link OP to S3--><g class="link" data-entity-1="ent0001" data-entity-2="ent0014" id="lnk29" data-source-line="42" data-link-type="dependency"><path d="M49.08,930.618 C59.59,958.718 77.67,995.608 105.51,1017.948 C126.92,1035.138 150.016,1044.3 176.006,1050.49" style="stroke:#181818;stroke-width:1;" fill="none" id="OP-to-S3"/><polygon points="180.87,1051.648,173.042,1045.672,176.006,1050.49,171.188,1053.454,180.87,1051.648" fill="#181818" style="stroke:#181818;stroke-width:1;stroke-linejoin:miter;stroke-miterlimit:10;"/></g><!--link OP to S4--><g class="link" data-entity-1="ent0001" data-entity-2="ent0015" id="lnk30" data-source-line="43" data-link-type="dependency"><path d="M39.09,930.468 C43.42,977.808 57.85,1057.568 105.51,1103.948 C119.56,1117.628 132.9,1125.438 151.6,1131.978" style="stroke:#181818;stroke-width:1;" fill="none" id="OP-to-S4"/><polygon points="156.32,1133.628,149.145,1126.881,151.6,1131.978,146.504,1134.433,156.32,1133.628" fill="#181818" style="stroke:#181818;stroke-width:1;stroke-linejoin:miter;stroke-miterlimit:10;"/></g><!--link OP to S5--><g class="link" data-entity-1="ent0001" data-entity-2="ent0016" id="lnk31" data-source-line="44" data-link-type="dependency"><path d="M39.14,930.418 C45.36,1049.798 67.12,1408.028 105.51,1441.948 C198.47,1524.088 271.15,1492.068 384.62,1441.948 C513.8,1384.898 605.162,1235.776 637.652,1176.316" style="stroke:#181818;stroke-width:1;" fill="none" id="OP-to-S5"/><polygon points="640.05,1171.928,632.224,1177.908,637.652,1176.316,639.245,1181.744,640.05,1171.928" fill="#181818" style="stroke:#181818;stroke-width:1;stroke-linejoin:miter;stroke-miterlimit:10;"/></g><!--link OP to S6--><g class="link" data-entity-1="ent0001" data-entity-2="ent0017" id="lnk32" data-source-line="45" data-link-type="dependency"><path d="M39.01,930.458 C43.75,1017.318 59.71,1224.858 105.51,1274.948 C129,1300.648 161.876,1310.273 193.746,1314.093" style="stroke:#181818;stroke-width:1;" fill="none" id="OP-to-S6"/><polygon points="198.71,1314.688,190.25,1309.646,193.746,1314.093,189.298,1317.589,198.71,1314.688" fill="#181818" style="stroke:#181818;stroke-width:1;stroke-linejoin:miter;stroke-miterlimit:10;"/></g><!--link OP to S7--><g class="link" data-entity-1="ent0001" data-entity-2="ent0018" id="lnk33" data-source-line="46" data-link-type="dependency"><path d="M37.67,930.378 C39.52,1030.238 49.71,1294.598 105.51,1357.948 C130.98,1386.868 169.539,1396.191 203.259,1399.151" style="stroke:#181818;stroke-width:1;" fill="none" id="OP-to-S7"/><polygon points="208.24,1399.588,199.624,1394.817,203.259,1399.151,198.925,1402.786,208.24,1399.588" fill="#181818" style="stroke:#181818;stroke-width:1;stroke-linejoin:miter;stroke-miterlimit:10;"/></g><!--link OP to S8--><g class="link" data-entity-1="ent0001" data-entity-2="ent0019" id="lnk34" data-source-line="47" data-link-type="dependency"><path d="M66.77,891.948 C98.38,891.948 144.56,891.948 185.74,891.948" style="stroke:#181818;stroke-width:1;" fill="none" id="OP-to-S8"/><polygon points="190.74,891.948,181.74,887.948,185.74,891.948,181.74,895.948,190.74,891.948" fill="#181818" style="stroke:#181818;stroke-width:1;stroke-linejoin:miter;stroke-miterlimit:10;"/></g><!--link E1 to E5--><g class="link" data-entity-1="ent0004" data-entity-2="ent0008" id="lnk35" data-source-line="49" data-link-type="dependency"><path d="M324.54,358.278 C401.39,374.838 521.552,400.725 592.992,416.125" style="stroke:#181818;stroke-width:1;stroke-dasharray:7,7;" fill="none" id="E1-to-E5"/><polygon points="597.88,417.178,589.925,411.372,592.992,416.125,588.239,419.192,597.88,417.178" fill="#181818" style="stroke:#181818;stroke-width:1;stroke-linejoin:miter;stroke-miterlimit:10;"/><text x="423.12" y="375.407" fill="#000" font-size="13" textLength="59.357">«include»</text></g><!--link E2 to E5--><g class="link" data-entity-1="ent0005" data-entity-2="ent0008" id="lnk36" data-source-line="50" data-link-type="dependency"><path d="M357.1,428.948 C430.59,428.948 523.49,428.948 586.03,428.948" style="stroke:#181818;stroke-width:1;stroke-dasharray:7,7;" fill="none" id="E2-to-E5"/><polygon points="591.03,428.948,582.03,424.948,586.03,428.948,582.03,432.948,591.03,428.948" fill="#181818" style="stroke:#181818;stroke-width:1;stroke-linejoin:miter;stroke-miterlimit:10;"/><text x="423.12" y="425.517" fill="#000" font-size="13" textLength="59.357">«include»</text></g><!--link E3 to E5--><g class="link" data-entity-1="ent0006" data-entity-2="ent0008" id="lnk37" data-source-line="51" data-link-type="dependency"><path d="M333.66,498.468 C410.95,481.618 524.245,456.924 592.935,441.944" style="stroke:#181818;stroke-width:1;stroke-dasharray:7,7;" fill="none" id="E3-to-E5"/><polygon points="597.82,440.878,588.174,438.888,592.935,441.944,589.879,446.704,597.82,440.878" fill="#181818" style="stroke:#181818;stroke-width:1;stroke-linejoin:miter;stroke-miterlimit:10;"/><text x="423.12" y="463.367" fill="#000" font-size="13" textLength="59.357">«include»</text></g><!--link E4 to E5--><g class="link" data-entity-1="ent0007" data-entity-2="ent0008" id="lnk38" data-source-line="52" data-link-type="dependency"><path d="M327.19,580.248 C345.97,573.418 366.2,565.708 384.62,557.948 C467.88,522.878 558.053,477.764 609.603,451.274" style="stroke:#181818;stroke-width:1;stroke-dasharray:7,7;" fill="none" id="E4-to-E5"/><polygon points="614.05,448.988,604.217,449.544,609.603,451.274,607.873,456.66,614.05,448.988" fill="#181818" style="stroke:#181818;stroke-width:1;stroke-linejoin:miter;stroke-miterlimit:10;"/><text x="423.12" y="507.507" fill="#000" font-size="13" textLength="59.357">«include»</text></g><!--link S1 to S5--><g class="link" data-entity-1="ent0012" data-entity-2="ent0016" id="lnk39" data-source-line="53" data-link-type="dependency"><path d="M319.27,1219.768 C397.82,1202.838 527.622,1174.872 599.362,1159.412" style="stroke:#181818;stroke-width:1;stroke-dasharray:7,7;" fill="none" id="S1-to-S5"/><polygon points="604.25,1158.358,594.609,1156.344,599.362,1159.412,596.295,1164.164,604.25,1158.358" fill="#181818" style="stroke:#181818;stroke-width:1;stroke-linejoin:miter;stroke-miterlimit:10;"/><text x="423.12" y="1181.927" fill="#000" font-size="13" textLength="59.357">«include»</text></g><!--link S2 to S5--><g class="link" data-entity-1="ent0013" data-entity-2="ent0016" id="lnk40" data-source-line="54" data-link-type="dependency"><path d="M311.28,991.898 C334.11,999.178 360.93,1008.318 384.62,1017.948 C470.35,1052.798 562.761,1100.14 613.251,1126.86" style="stroke:#181818;stroke-width:1;stroke-dasharray:7,7;" fill="none" id="S2-to-S5"/><polygon points="617.67,1129.198,611.586,1121.453,613.251,1126.86,607.844,1128.524,617.67,1129.198" fill="#181818" style="stroke:#181818;stroke-width:1;stroke-linejoin:miter;stroke-miterlimit:10;"/><text x="423.12" y="1030.267" fill="#000" font-size="13" textLength="59.357">«include»</text></g><!--link S3 to S5--><g class="link" data-entity-1="ent0014" data-entity-2="ent0016" id="lnk41" data-source-line="55" data-link-type="dependency"><path d="M324.54,1075.608 C403.8,1093.098 529.467,1120.812 599.577,1136.272" style="stroke:#181818;stroke-width:1;stroke-dasharray:7,7;" fill="none" id="S3-to-S5"/><polygon points="604.46,1137.348,596.532,1131.504,599.577,1136.272,594.81,1139.316,604.46,1137.348" fill="#181818" style="stroke:#181818;stroke-width:1;stroke-linejoin:miter;stroke-miterlimit:10;"/><text x="423.12" y="1093.227" fill="#000" font-size="13" textLength="59.357">«include»</text></g><!--link S4 to S5--><g class="link" data-entity-1="ent0015" data-entity-2="ent0016" id="lnk42" data-source-line="56" data-link-type="dependency"><path d="M376.42,1147.948 C450.52,1147.948 537.39,1147.948 594.24,1147.948" style="stroke:#181818;stroke-width:1;stroke-dasharray:7,7;" fill="none" id="S4-to-S5"/><polygon points="599.24,1147.948,590.24,1143.948,594.24,1147.948,590.24,1151.948,599.24,1147.948" fill="#181818" style="stroke:#181818;stroke-width:1;stroke-linejoin:miter;stroke-miterlimit:10;"/><text x="423.12" y="1144.517" fill="#000" font-size="13" textLength="59.357">«include»</text></g><!--link E2 to KC--><g class="link" data-entity-1="ent0005" data-entity-2="ent0002" id="lnk43" data-source-line="58" data-link-type="dependency"><path d="M338.18,443.648 C355.27,449.968 371.97,459.018 384.62,471.948 C415.59,503.598 389.18,530.708 414.62,566.948 C448.69,615.478 469.19,618.468 520.62,647.948 C549.61,664.568 579.996,676.984 606.706,686.604" style="stroke:#181818;stroke-width:1;" fill="none" id="E2-to-KC"/><polygon points="611.41,688.298,604.298,681.485,606.706,686.604,601.587,689.012,611.41,688.298" fill="#181818" style="stroke:#181818;stroke-width:1;stroke-linejoin:miter;stroke-miterlimit:10;"/><text x="415.62" y="563.517" fill="#000" font-size="13" textLength="74.103">store secret</text></g><!--link E3 to KC--><g class="link" data-entity-1="ent0006" data-entity-2="ent0002" id="lnk44" data-source-line="59" data-link-type="dependency"><path d="M336.68,530.478 C354.13,536.938 371.36,546.058 384.62,558.948 C411.56,585.128 386.77,612.758 414.62,637.948 C469.66,687.738 554.375,699.211 606.485,701.581" style="stroke:#181818;stroke-width:1;" fill="none" id="E3-to-KC"/><polygon points="611.48,701.808,602.671,697.404,606.485,701.581,602.308,705.395,611.48,701.808" fill="#181818" style="stroke:#181818;stroke-width:1;stroke-linejoin:miter;stroke-miterlimit:10;"/></g><!--link E4 to KC--><g class="link" data-entity-1="ent0007" data-entity-2="ent0002" id="lnk45" data-source-line="60" data-link-type="dependency"><path d="M301.93,630.548 C332.42,647.688 374.61,668.788 414.62,679.948 C481.95,698.738 558.72,702.291 606.75,702.551" style="stroke:#181818;stroke-width:1;" fill="none" id="E4-to-KC"/><polygon points="611.75,702.578,602.772,698.53,606.75,702.551,602.728,706.53,611.75,702.578" fill="#181818" style="stroke:#181818;stroke-width:1;stroke-linejoin:miter;stroke-miterlimit:10;"/></g><!--link S2 to KC--><g class="link" data-entity-1="ent0013" data-entity-2="ent0002" id="lnk46" data-source-line="61" data-link-type="dependency"><path d="M323.69,967.358 C345.79,961.358 368.82,951.188 384.62,933.948 C423.53,891.518 378.34,852.648 414.62,807.948 C464.64,746.338 552.989,720.379 606.689,709.519" style="stroke:#181818;stroke-width:1;" fill="none" id="S2-to-KC"/><polygon points="611.59,708.528,601.976,706.392,606.689,709.519,603.561,714.233,611.59,708.528" fill="#181818" style="stroke:#181818;stroke-width:1;stroke-linejoin:miter;stroke-miterlimit:10;"/></g><!--link S3 to KC--><g class="link" data-entity-1="ent0014" data-entity-2="ent0002" id="lnk47" data-source-line="62" data-link-type="dependency"><path d="M331.01,1050.088 C350.92,1043.758 370.79,1033.748 384.62,1017.948 C429.98,966.138 377.24,923.778 414.62,865.948 C437.12,831.158 462.99,842.828 490.62,811.948 C508.94,791.498 500.21,776.318 520.62,757.948 C546.43,734.738 578.49,721.631 606.68,713.201" style="stroke:#181818;stroke-width:1;" fill="none" id="S3-to-KC"/><polygon points="611.47,711.768,601.701,710.515,606.68,713.201,603.993,718.179,611.47,711.768" fill="#181818" style="stroke:#181818;stroke-width:1;stroke-linejoin:miter;stroke-miterlimit:10;"/></g><!--link S4 to KC--><g class="link" data-entity-1="ent0015" data-entity-2="ent0002" id="lnk48" data-source-line="63" data-link-type="dependency"><path d="M344.75,1129.968 C359.51,1123.718 373.6,1115.298 384.62,1103.948 C415.48,1072.198 397.26,1049.678 414.62,1008.948 C442.25,944.188 464.44,935.308 490.62,869.948 C509.79,822.118 486.82,796.848 520.62,757.948 C543.88,731.198 577.273,718.108 606.603,710.668" style="stroke:#181818;stroke-width:1;" fill="none" id="S4-to-KC"/><polygon points="611.45,709.438,601.743,707.774,606.603,710.668,603.71,715.528,611.45,709.438" fill="#181818" style="stroke:#181818;stroke-width:1;stroke-linejoin:miter;stroke-miterlimit:10;"/></g><?plantuml-src TLJRJXin47ttLunIgMe5990ReK98488gfMeGRjzuCRkpMIkE7TdUf6bLgH_HB-oNTBoxCM49USbeVCwPo_7QBQHU2IkMy2IInToQGgTZeuo5TtVbZxc8A1mcmY7yOW0tJVHaV7TwTnPEZ4tHrjdkk3SPdBBVJ67cmHkmSfvxIAN5n4kZcPTU8OoDpkIyi2BauD-Vlp3HQscDNgBs3ju3zyQAEJ8c4efWjaB2KY0SpExhP6l6OOhR91TIjyB9TCnOg2Fqd6gqNaY66fiSBPOKPSG2RA5TgnnkDsZh-_XaSWRNQGfVJ2BKe_xWqAxHGcOK3VcnB3CvQrAw9ONppqJ8ZVDm18TutIQlL_9kJR90MzUI2K874gCzJHMPlIQpNpAd8qTWMexckSmyIMYnHBSI9784AQwKsORnQvL-KsK0tz0H3PytLI47JUImSzuPmIIL_lXHfyLAoKHuFAOQ2ZrMf66JT04Fk9QuUL70LU0BkYFxPjM6x_daj5Yvt91tIgxnjL6yCkfMkWKDlhzetZI8xnlq0jcqX5UMy1u1dmho9NYvifZ97pMZQGMlhBZ-MTZWNFYN7eaUFMmgD6tWEnjSjOCArRI03ylrGuVs_xnqtbmwFmUEFc0oKQZAJdxU18tWnfgDepP3bz4LFWgkpExXvEGgNFDTr8rHBqRz60rYD8pHnIxYKOL75HvLU5JXKOL75Ufx5uqOem-ptGxbu1DSNagTg2B5goj6Nz_XVE-DVFzmdbVw_5M--qQ-zqQ-VpWV6WspJCTq4AocAuw9HHywhGv2RtN4kp6AfpoUCcqymfFntYp1P245uT6WHxMz5Ki5ELro1qQhBGYW8YbvB8LwmAnDoA-cBWrheGe4wG33QxMXgqkt8RpRqhSPwXH28VOV?></g></svg>