<svg xmlns="http://www.w3.org/2000/svg" xmlns:xlink="http://www.w3.org/1999/xlink" version="1.1" data-diagram-type="STATE" style="width:1112px;height:1377px;background:#FFFFFF;" width="1112px" height="1377px" viewBox="0 0 1112 1377" zoomAndPan="magnify" preserveAspectRatio="none" contentStyleType="text/css"><?plantuml 1.2026.7?><defs/><g font-family="sans-serif" lengthAdjust="spacing"><g class="title" data-source-line="2"><text x="376.748" y="23.535" fill="#000" font-size="14" textLength="351.504" font-weight="700">Job lifecycle across use cases (UC-O1 … UC-O6)</text></g><g class="start_entity" data-qualified-name=".start." id="ent0001" data-source-line="4"><ellipse cx="184" cy="53.488" rx="10" ry="10" fill="#222" style="stroke:#222;stroke-width:1;"/></g><g class="entity" data-qualified-name="Queued" id="ent0002" data-source-line="4"><rect x="147.67" y="155.488" width="72.664" height="50" fill="#F1F1F1" style="stroke:#181818;stroke-width:0.5;" rx="12.5" ry="12.5"/><line x1="147.67" y1="181.977" x2="220.334" y2="181.977" style="stroke:#181818;stroke-width:0.5;"/><text x="157.67" y="174.023" fill="#000" font-size="14" textLength="52.664">Queued</text></g><g class="entity" data-qualified-name="Probing" id="ent0004" data-source-line="5"><rect x="147.83" y="293.108" width="72.343" height="50" fill="#F1F1F1" style="stroke:#181818;stroke-width:0.5;" rx="12.5" ry="12.5"/><line x1="147.83" y1="319.597" x2="220.173" y2="319.597" style="stroke:#181818;stroke-width:0.5;"/><text x="157.83" y="311.643" fill="#000" font-size="14" textLength="52.343">Probing</text></g><g class="entity" data-qualified-name="Failed" id="ent0006" data-source-line="6"><rect x="242.03" y="1067.728" width="59.942" height="50" fill="#F1F1F1" style="stroke:#181818;stroke-width:0.5;" rx="12.5" ry="12.5"/><line x1="242.03" y1="1094.217" x2="301.972" y2="1094.217" style="stroke:#181818;stroke-width:0.5;"/><text x="252.03" y="1086.263" fill="#000" font-size="14" textLength="39.942">Failed</text></g><g class="entity" data-qualified-name="Cloning" id="ent0008" data-source-line="7"><rect x="147.76" y="445.728" width="72.486" height="50" fill="#F1F1F1" style="stroke:#181818;stroke-width:0.5;" rx="12.5" ry="12.5"/><line x1="147.76" y1="472.217" x2="220.246" y2="472.217" style="stroke:#181818;stroke-width:0.5;"/><text x="157.76" y="464.263" fill="#000" font-size="14" textLength="52.486">Cloning</text></g><g class="entity" data-qualified-name="Running" id="ent0010" data-source-line="8"><rect x="498.81" y="605.728" width="76.383" height="50" fill="#F1F1F1" style="stroke:#181818;stroke-width:0.5;" rx="12.5" ry="12.5"/><line x1="498.81" y1="632.217" x2="575.193" y2="632.217" style="stroke:#181818;stroke-width:0.5;"/><text x="508.81" y="624.263" fill="#000" font-size="14" textLength="56.383">Running</text></g><g class="entity" data-qualified-name="Verifying" id="ent0014" data-source-line="12"><rect x="458.67" y="747.728" width="80.655" height="50" fill="#F1F1F1" style="stroke:#181818;stroke-width:0.5;" rx="12.5" ry="12.5"/><line x1="458.67" y1="774.217" x2="539.325" y2="774.217" style="stroke:#181818;stroke-width:0.5;"/><text x="468.67" y="766.263" fill="#000" font-size="14" textLength="60.655">Verifying</text></g><g class="entity" data-qualified-name="Backoff" id="ent0016" data-source-line="13"><rect x="742.98" y="907.728" width="70.032" height="50" fill="#F1F1F1" style="stroke:#181818;stroke-width:0.5;" rx="12.5" ry="12.5"/><line x1="742.98" y1="934.217" x2="813.012" y2="934.217" style="stroke:#181818;stroke-width:0.5;"/><text x="752.98" y="926.263" fill="#000" font-size="14" textLength="50.032">Backoff</text></g><g class="entity" data-qualified-name="Interrupted" id="ent0018" data-source-line="14"><rect x="682.72" y="293.108" width="96.563" height="50" fill="#F1F1F1" style="stroke:#181818;stroke-width:0.5;" rx="12.5" ry="12.5"/><line x1="682.72" y1="319.597" x2="779.283" y2="319.597" style="stroke:#181818;stroke-width:0.5;"/><text x="692.72" y="311.643" fill="#000" font-size="14" textLength="76.563">Interrupted</text></g><g class="entity" data-qualified-name="Cancelling" id="ent0020" data-source-line="15"><rect x="190.68" y="827.728" width="90.636" height="50" fill="#F1F1F1" style="stroke:#181818;stroke-width:0.5;" rx="12.5" ry="12.5"/><line x1="190.68" y1="854.217" x2="281.316" y2="854.217" style="stroke:#181818;stroke-width:0.5;"/><text x="200.68" y="846.263" fill="#000" font-size="14" textLength="70.636">Cancelling</text></g><g class="entity" data-qualified-name="CircuitOpen" id="ent0023" data-source-line="18"><rect x="806.61" y="1067.728" width="100.78" height="50" fill="#F1F1F1" style="stroke:#181818;stroke-width:0.5;" rx="12.5" ry="12.5"/><line x1="806.61" y1="1094.217" x2="907.39" y2="1094.217" style="stroke:#181818;stroke-width:0.5;"/><text x="816.61" y="1086.263" fill="#000" font-size="14" textLength="80.78">CircuitOpen</text></g><g class="entity" data-qualified-name="Resuming" id="ent0027" data-source-line="22"><rect x="493.49" y="445.728" width="87.013" height="50" fill="#F1F1F1" style="stroke:#181818;stroke-width:0.5;" rx="12.5" ry="12.5"/><line x1="493.49" y1="472.217" x2="580.503" y2="472.217" style="stroke:#181818;stroke-width:0.5;"/><text x="503.49" y="464.263" fill="#000" font-size="14" textLength="67.013">Resuming</text></g><g class="entity" data-qualified-name="Discarded" id="ent0029" data-source-line="23"><rect x="961.14" y="525.728" width="87.724" height="50" fill="#F1F1F1" style="stroke:#181818;stroke-width:0.5;" rx="12.5" ry="12.5"/><line x1="961.14" y1="552.217" x2="1048.864" y2="552.217" style="stroke:#181818;stroke-width:0.5;"/><text x="971.14" y="544.263" fill="#000" font-size="14" textLength="67.724">Discarded</text></g><g class="entity" data-qualified-name="Committed" id="ent0032" data-source-line="26"><rect x="407.22" y="987.728" width="95.558" height="50" fill="#F1F1F1" style="stroke:#181818;stroke-width:0.5;" rx="12.5" ry="12.5"/><line x1="407.22" y1="1014.217" x2="502.778" y2="1014.217" style="stroke:#181818;stroke-width:0.5;"/><text x="417.22" y="1006.263" fill="#000" font-size="14" textLength="75.558">Committed</text></g><g class="entity" data-qualified-name="Teardown" id="ent0036" data-source-line="30"><rect x="375.5" y="1181.688" width="86.999" height="50" fill="#F1F1F1" style="stroke:#181818;stroke-width:0.5;" rx="12.5" ry="12.5"/><line x1="375.5" y1="1208.177" x2="462.499" y2="1208.177" style="stroke:#181818;stroke-width:0.5;"/><text x="385.5" y="1200.223" fill="#000" font-size="14" textLength="66.999">Teardown</text></g><g class="end_entity" data-qualified-name=".end." id="ent0041" data-source-line="34"><ellipse cx="419" cy="1352.658" rx="11" ry="11" fill="none" style="stroke:#222;stroke-width:1;"/><ellipse cx="419" cy="1352.658" rx="6" ry="6" fill="#222" style="stroke:#222;stroke-width:1;"/></g><g class="entity" data-qualified-name="GMN43" id="ent0044" data-source-line="37"><path d="M813.84,282.488 L813.84,314.108 L779.78,318.108 L813.84,322.108 L813.84,353.73 A0,0 0 0 0 813.84,353.73 L1018.167,353.73 A0,0 0 0 0 1018.167,353.73 L1018.167,292.488 L1008.167,282.488 L813.84,282.488 A0,0 0 0 0 813.84,282.488" style="stroke:#181818;stroke-width:0.5;" fill="#FEFFDD"/><path d="M1008.167,282.488 L1008.167,292.488 L1018.167,292.488 L1008.167,282.488" style="stroke:#181818;stroke-width:0.5;" fill="#FEFFDD"/><text x="819.84" y="300.057" fill="#000" font-size="13" textLength="119.583">Checkpoint lives in</text><text x="819.84" y="315.367" fill="#000" font-size="13" textLength="174.199">/.portcloak/jobs/&lt;id>.json</text><text x="819.84" y="330.678" fill="#000" font-size="13" textLength="183.327">so the job survives PortCloak</text><text x="819.84" y="345.988" fill="#000" font-size="13" textLength="159.352">being closed or crashing.</text></g><g class="entity" data-qualified-name="GMN46" id="ent0047" data-source-line="44"><path d="M497.03,1178.728 L497.03,1202.688 L462.73,1206.688 L497.03,1210.688 L497.03,1234.66 A0,0 0 0 0 497.03,1234.66 L726.969,1234.66 A0,0 0 0 0 726.969,1234.66 L726.969,1188.728 L716.969,1178.728 L497.03,1178.728 A0,0 0 0 0 497.03,1178.728" style="stroke:#181818;stroke-width:0.5;" fill="#FEFFDD"/><path d="M716.969,1178.728 L716.969,1188.728 L726.969,1188.728 L716.969,1178.728" style="stroke:#181818;stroke-width:0.5;" fill="#FEFFDD"/><text x="503.03" y="1196.297" fill="#000" font-size="13" textLength="208.939">Reached on EVERY terminal path.</text><text x="503.03" y="1211.607" fill="#000" font-size="13" textLength="206.699">Never leaves an ephemeral clone</text><text x="503.03" y="1226.918" fill="#000" font-size="13" textLength="185.796">holding database credentials.</text></g><!--link *start* to Queued--><g class="link" data-entity-1="ent0001" data-entity-2="ent0002" id="lnk3" data-source-line="4" data-link-type="dependency"><path d="M184,63.878 C184,83.068 184,122.308 184,150.158" style="stroke:#181818;stroke-width:1;" fill="none" id="*start*-to-Queued"/><polygon points="184,155.158,188,146.158,184,150.158,180,146.158,184,155.158" fill="#181818" style="stroke:#181818;stroke-width:1;stroke-linejoin:miter;stroke-miterlimit:10;"/><text x="213.019" y="107.057" fill="#000" font-size="13" textLength="95.78">Operator starts</text><text x="185" y="122.367" fill="#000" font-size="13" textLength="151.817">capture / restore / copy</text></g><!--link Queued to Probing--><g class="link" data-entity-1="ent0002" data-entity-2="ent0004" id="lnk5" data-source-line="5" data-link-type="dependency"><path d="M184,205.728 C184,230.268 184,262.988 184,287.608" style="stroke:#181818;stroke-width:1;" fill="none" id="Queued-to-Probing"/><polygon points="184,292.608,188,283.608,184,287.608,180,283.608,184,292.608" fill="#181818" style="stroke:#181818;stroke-width:1;stroke-linejoin:miter;stroke-miterlimit:10;"/><text x="185" y="249.057" fill="#000" font-size="13" textLength="42.739">UC-C6</text></g><!--link Probing to Failed--><g class="link" data-entity-1="ent0004" data-entity-2="ent0006" id="lnk7" data-source-line="6" data-link-type="dependency"><path d="M147.55,331.278 C95.47,351.248 6,396.248 6,469.728 C6,469.728 6,469.728 6,933.728 C6,1042.358 167.082,1077.237 236.802,1087.397" style="stroke:#181818;stroke-width:1;" fill="none" id="Probing-to-Failed"/><polygon points="241.75,1088.118,233.421,1082.862,236.802,1087.397,232.267,1090.779,241.75,1088.118" fill="#181818" style="stroke:#181818;stroke-width:1;stroke-linejoin:miter;stroke-miterlimit:10;"/><text x="7" y="699.297" fill="#000" font-size="13" textLength="124.668">blocking check fails</text><text x="10.494" y="714.607" fill="#000" font-size="13" textLength="117.679">(never starts work)</text></g><!--link Probing to Cloning--><g class="link" data-entity-1="ent0004" data-entity-2="ent0008" id="lnk9" data-source-line="7" data-link-type="dependency"><path d="M184,343.308 C184,371.408 184,412.508 184,440.588" style="stroke:#181818;stroke-width:1;" fill="none" id="Probing-to-Cloning"/><polygon points="184,445.588,188,436.588,184,440.588,180,436.588,184,445.588" fill="#181818" style="stroke:#181818;stroke-width:1;stroke-linejoin:miter;stroke-miterlimit:10;"/><text x="185" y="404.797" fill="#000" font-size="13" textLength="80.476">docker / k8s</text></g><!--link Probing to Running--><g class="link" data-entity-1="ent0004" data-entity-2="ent0010" id="lnk11" data-source-line="8" data-link-type="dependency"><path d="M220.27,343.548 C237,355.228 256.9,369.688 274,383.728 C366.78,459.888 464.811,556.637 509.781,602.017" style="stroke:#181818;stroke-width:1;" fill="none" id="Probing-to-Running"/><polygon points="513.3,605.568,509.806,596.36,509.781,602.017,504.124,601.991,513.3,605.568" fill="#181818" style="stroke:#181818;stroke-width:1;stroke-linejoin:miter;stroke-miterlimit:10;"/><text x="398.17" y="475.797" fill="#000" font-size="13" textLength="65.705">local / ssh</text></g><!--link Cloning to Running--><g class="link" data-entity-1="ent0008" data-entity-2="ent0010" id="lnk12" data-source-line="9" data-link-type="dependency"><path d="M188.69,495.998 C194.68,520.098 207.48,556.198 233,575.728 C274.13,607.198 421.414,621.56 493.584,626.89" style="stroke:#181818;stroke-width:1;" fill="none" id="Cloning-to-Running"/><polygon points="498.57,627.258,489.889,622.606,493.584,626.89,489.3,630.585,498.57,627.258" fill="#181818" style="stroke:#181818;stroke-width:1;stroke-linejoin:miter;stroke-miterlimit:10;"/><text x="234" y="555.797" fill="#000" font-size="13" textLength="122.142">clone hung &amp; ready</text></g><!--link Cloning to Failed--><g class="link" data-entity-1="ent0008" data-entity-2="ent0006" id="lnk13" data-source-line="10" data-link-type="dependency"><path d="M176.68,496.098 C168.09,526.928 155,581.758 155,629.728 C155,629.728 155,629.728 155,933.728 C155,991.918 202.978,1039.587 237.648,1066.997" style="stroke:#181818;stroke-width:1;" fill="none" id="Cloning-to-Failed"/><polygon points="241.57,1070.098,236.991,1061.379,237.648,1066.997,232.029,1067.654,241.57,1070.098" fill="#181818" style="stroke:#181818;stroke-width:1;stroke-linejoin:miter;stroke-miterlimit:10;"/><text x="156" y="777.797" fill="#000" font-size="13" textLength="123.265">cannot create clone</text></g><!--link Running to Verifying--><g class="link" data-entity-1="ent0010" data-entity-2="ent0014" id="lnk15" data-source-line="12" data-link-type="dependency"><path d="M530.38,656.108 C523.41,681.808 513.8,717.203 506.85,742.793" style="stroke:#181818;stroke-width:1;" fill="none" id="Running-to-Verifying"/><polygon points="505.54,747.618,511.759,739.981,506.85,742.793,504.039,737.885,505.54,747.618" fill="#181818" style="stroke:#181818;stroke-width:1;stroke-linejoin:miter;stroke-miterlimit:10;"/><text x="522.4" y="699.297" fill="#000" font-size="13" textLength="93.825">work streamed</text><text x="535.425" y="714.607" fill="#000" font-size="13" textLength="67.774">and sealed</text></g><!--link Running to Backoff--><g class="link" data-entity-1="ent0010" data-entity-2="ent0016" id="lnk17" data-source-line="13" data-link-type="dependency"><path d="M575.34,649.648 C591.81,658.728 610.36,670.978 624,685.728 C662.07,726.878 639,761.768 682,797.728 C716.62,826.678 752.22,791.408 779,827.728 C795.83,850.538 792.863,879.64 787.103,902.48" style="stroke:#181818;stroke-width:1;" fill="none" id="Running-to-Backoff"/><polygon points="785.88,907.328,791.959,899.58,787.103,902.48,784.202,897.623,785.88,907.328" fill="#181818" style="stroke:#181818;stroke-width:1;stroke-linejoin:miter;stroke-miterlimit:10;"/><text x="729.636" y="770.297" fill="#000" font-size="13" textLength="91.197">retryable error</text><text x="683" y="785.607" fill="#000" font-size="13" textLength="184.469">(timeout, reset, 5xx, throttle)</text></g><!--link Backoff to Running--><g class="link" data-entity-1="ent0016" data-entity-2="ent0010" id="lnk22" data-source-line="17" data-link-type="dependency"><path d="M806.84,907.518 C846.73,871.088 909.76,800.768 872,747.728 C803.19,651.088 653.087,634.377 580.637,631.937" style="stroke:#181818;stroke-width:1;" fill="none" id="Backoff-to-Running"/><polygon points="575.64,631.768,584.5,636.069,580.637,631.937,584.77,628.073,575.64,631.768" fill="#181818" style="stroke:#181818;stroke-width:1;stroke-linejoin:miter;stroke-miterlimit:10;"/><text x="907.614" y="770.297" fill="#000" font-size="13" textLength="85.681">delay elapsed</text><text x="884.61" y="785.607" fill="#000" font-size="13" textLength="131.688">(exp backoff + jitter)</text></g><!--link Running to Interrupted--><g class="link" data-entity-1="ent0010" data-entity-2="ent0018" id="lnk19" data-source-line="14" data-link-type="dependency"><path d="M575.47,622.248 C603.22,614.928 639.6,601.048 662,575.728 C722.07,507.838 730.509,397.968 731.219,348.248" style="stroke:#181818;stroke-width:1;" fill="none" id="Running-to-Interrupted"/><polygon points="731.29,343.248,727.162,352.19,731.219,348.248,735.161,352.304,731.29,343.248" fill="#181818" style="stroke:#181818;stroke-width:1;stroke-linejoin:miter;stroke-miterlimit:10;"/><text x="721.1" y="475.797" fill="#000" font-size="13" textLength="126.744">connection dropped</text></g><!--link Running to Cancelling--><g class="link" data-entity-1="ent0010" data-entity-2="ent0020" id="lnk21" data-source-line="15" data-link-type="dependency"><path d="M498.48,633.308 C455.97,636.958 387.65,648.658 343,685.728 C300.33,721.148 319.84,752.318 288,797.728 C280.68,808.168 274.859,814.977 266.129,823.787" style="stroke:#181818;stroke-width:1;" fill="none" id="Running-to-Cancelling"/><polygon points="262.61,827.338,271.786,823.761,266.129,823.787,266.104,818.13,262.61,827.338" fill="#181818" style="stroke:#181818;stroke-width:1;stroke-linejoin:miter;stroke-miterlimit:10;"/><text x="344" y="706.797" fill="#000" font-size="13" textLength="162.906">Operator cancels (UC-O3)</text></g><!--link Backoff to CircuitOpen--><g class="link" data-entity-1="ent0016" data-entity-2="ent0023" id="lnk24" data-source-line="18" data-link-type="dependency"><path d="M766.6,958.088 C758.02,980.288 749.91,1013.258 764,1037.728 C773.41,1054.068 785.411,1063.656 801.891,1072.016" style="stroke:#181818;stroke-width:1;" fill="none" id="Backoff-to-CircuitOpen"/><polygon points="806.35,1074.278,800.133,1066.639,801.891,1072.016,796.514,1073.774,806.35,1074.278" fill="#181818" style="stroke:#181818;stroke-width:1;stroke-linejoin:miter;stroke-miterlimit:10;"/><text x="765" y="1017.797" fill="#000" font-size="13" textLength="138.461">N consecutive failures</text></g><!--link CircuitOpen to Backoff--><g class="link" data-entity-1="ent0023" data-entity-2="ent0016" id="lnk25" data-source-line="19" data-link-type="dependency"><path d="M887.31,1067.478 C895.63,1059.048 903.57,1048.868 908,1037.728 C916.21,1017.078 920.34,1006.208 908,987.728 C887.04,956.318 848.952,944.039 818.142,938.529" style="stroke:#181818;stroke-width:1;" fill="none" id="CircuitOpen-to-Backoff"/><polygon points="813.22,937.648,821.375,943.17,818.142,938.529,822.784,935.295,813.22,937.648" fill="#181818" style="stroke:#181818;stroke-width:1;stroke-linejoin:miter;stroke-miterlimit:10;"/><text x="916.78" y="1010.297" fill="#000" font-size="13" textLength="113.166">cooldown elapsed</text><text x="917.231" y="1025.607" fill="#000" font-size="13" textLength="112.265">(half-open probe)</text></g><!--link Backoff to Failed--><g class="link" data-entity-1="ent0016" data-entity-2="ent0006" id="lnk26" data-source-line="20" data-link-type="dependency"><path d="M742.76,941.598 C705.98,950.438 647.07,966.398 599,987.728 C559.64,1005.188 555.99,1021.748 516,1037.728 C442.27,1067.178 354.218,1081.473 307.178,1087.593" style="stroke:#181818;stroke-width:1;" fill="none" id="Backoff-to-Failed"/><polygon points="302.22,1088.238,311.661,1091.044,307.178,1087.593,310.629,1083.111,302.22,1088.238" fill="#181818" style="stroke:#181818;stroke-width:1;stroke-linejoin:miter;stroke-miterlimit:10;"/><text x="600" y="1010.297" fill="#000" font-size="13" textLength="147.85">retry budget exhausted</text><text x="621.446" y="1025.607" fill="#000" font-size="13" textLength="104.958">or non-retryable</text></g><!--link Interrupted to Resuming--><g class="link" data-entity-1="ent0018" data-entity-2="ent0027" id="lnk28" data-source-line="22" data-link-type="dependency"><path d="M682.48,319.908 C635.86,323.588 567.68,337.228 534,383.728 C521.2,401.388 522.745,422.033 527.495,440.673" style="stroke:#181818;stroke-width:1;" fill="none" id="Interrupted-to-Resuming"/><polygon points="528.73,445.518,530.384,435.809,527.495,440.673,522.631,437.785,528.73,445.518" fill="#181818" style="stroke:#181818;stroke-width:1;stroke-linejoin:miter;stroke-miterlimit:10;"/><text x="535" y="397.297" fill="#000" font-size="13" textLength="169.978">Operator resumes (UC-O2)</text><text x="560.226" y="412.607" fill="#000" font-size="13" textLength="119.526">checkpoint on disk</text></g><!--link Interrupted to Discarded--><g class="link" data-entity-1="ent0018" data-entity-2="ent0029" id="lnk30" data-source-line="23" data-link-type="dependency"><path d="M760.06,343.568 C812.81,387.968 919.875,478.078 972.405,522.298" style="stroke:#181818;stroke-width:1;" fill="none" id="Interrupted-to-Discarded"/><polygon points="976.23,525.518,971.921,516.662,972.405,522.298,966.769,522.782,976.23,525.518" fill="#181818" style="stroke:#181818;stroke-width:1;stroke-linejoin:miter;stroke-miterlimit:10;"/><text x="845.62" y="404.797" fill="#000" font-size="13" textLength="169.248">Operator discards (UC-O4)</text></g><!--link Resuming to Running--><g class="link" data-entity-1="ent0027" data-entity-2="ent0010" id="lnk31" data-source-line="24" data-link-type="dependency"><path d="M537,496.068 C537,525.758 537,570.658 537,600.358" style="stroke:#181818;stroke-width:1;" fill="none" id="Resuming-to-Running"/><polygon points="537,605.358,541,596.358,537,600.358,533,596.358,537,605.358" fill="#181818" style="stroke:#181818;stroke-width:1;stroke-linejoin:miter;stroke-miterlimit:10;"/><text x="538" y="548.297" fill="#000" font-size="13" textLength="115.584">continue from last</text><text x="539.174" y="563.607" fill="#000" font-size="13" textLength="113.236">good part / offset</text></g><!--link Verifying to Committed--><g class="link" data-entity-1="ent0014" data-entity-2="ent0032" id="lnk33" data-source-line="26" data-link-type="dependency"><path d="M472.67,797.998 C465.16,806.578 457.95,816.828 454,827.728 C434.37,881.948 442.002,946.263 448.752,982.383" style="stroke:#181818;stroke-width:1;" fill="none" id="Verifying-to-Committed"/><polygon points="449.67,987.298,451.949,977.717,448.752,982.383,444.085,979.186,449.67,987.298" fill="#181818" style="stroke:#181818;stroke-width:1;stroke-linejoin:miter;stroke-miterlimit:10;"/><text x="455" y="857.797" fill="#000" font-size="13" textLength="119.945">checksum matches</text></g><!--link Verifying to Backoff--><g class="link" data-entity-1="ent0014" data-entity-2="ent0016" id="lnk34" data-source-line="27" data-link-type="dependency"><path d="M539.69,795.628 C554.23,804.508 570.17,815.558 583,827.728 C602.87,846.568 596.99,861.438 619,877.728 C656.14,905.208 703.335,918.397 737.635,925.187" style="stroke:#181818;stroke-width:1;" fill="none" id="Verifying-to-Backoff"/><polygon points="742.54,926.158,734.488,920.487,737.635,925.187,732.935,928.334,742.54,926.158" fill="#181818" style="stroke:#181818;stroke-width:1;stroke-linejoin:miter;stroke-miterlimit:10;"/><text x="620" y="857.797" fill="#000" font-size="13" textLength="154.991">mismatch — resend part</text></g><!--link Verifying to Failed--><g class="link" data-entity-1="ent0014" data-entity-2="ent0006" id="lnk35" data-source-line="28" data-link-type="dependency"><path d="M458.33,793.158 C416.72,815.148 353.31,854.908 318,907.728 C284.6,957.688 275.785,1024.94 273.275,1062.3" style="stroke:#181818;stroke-width:1;" fill="none" id="Verifying-to-Failed"/><polygon points="272.94,1067.288,277.534,1058.577,273.275,1062.3,269.552,1058.04,272.94,1067.288" fill="#181818" style="stroke:#181818;stroke-width:1;stroke-linejoin:miter;stroke-miterlimit:10;"/><text x="319" y="937.797" fill="#000" font-size="13" textLength="114.785">mismatch persists</text></g><!--link Cancelling to Teardown--><g class="link" data-entity-1="ent0020" data-entity-2="ent0036" id="lnk37" data-source-line="30" data-link-type="dependency"><path d="M247.22,877.828 C257.16,899.008 272.2,930.578 286,957.728 C328.05,1040.468 378.531,1132.602 403.001,1176.872" style="stroke:#181818;stroke-width:1;" fill="none" id="Cancelling-to-Teardown"/><polygon points="405.42,1181.248,404.567,1171.436,403.001,1176.872,397.565,1175.307,405.42,1181.248" fill="#181818" style="stroke:#181818;stroke-width:1;stroke-linejoin:miter;stroke-miterlimit:10;"/></g><!--link Committed to Teardown--><g class="link" data-entity-1="ent0032" data-entity-2="ent0036" id="lnk38" data-source-line="31" data-link-type="dependency"><path d="M450.44,1038.038 C443.53,1074.868 431.422,1139.474 424.502,1176.364" style="stroke:#181818;stroke-width:1;" fill="none" id="Committed-to-Teardown"/><polygon points="423.58,1181.278,429.171,1173.17,424.502,1176.364,421.308,1171.695,423.58,1181.278" fill="#181818" style="stroke:#181818;stroke-width:1;stroke-linejoin:miter;stroke-miterlimit:10;"/></g><!--link Failed to Teardown--><g class="link" data-entity-1="ent0006" data-entity-2="ent0036" id="lnk39" data-source-line="32" data-link-type="dependency"><path d="M295.14,1118.148 C305.13,1128.118 317.21,1139.468 329,1148.728 C343.83,1160.378 356.872,1169.167 372.322,1178.677" style="stroke:#181818;stroke-width:1;" fill="none" id="Failed-to-Teardown"/><polygon points="376.58,1181.298,371.012,1173.174,372.322,1178.677,366.819,1179.987,376.58,1181.298" fill="#181818" style="stroke:#181818;stroke-width:1;stroke-linejoin:miter;stroke-miterlimit:10;"/></g><!--link Discarded to Teardown--><g class="link" data-entity-1="ent0029" data-entity-2="ent0036" id="lnk40" data-source-line="33" data-link-type="dependency"><path d="M1031.61,575.808 C1058.78,603.168 1097,650.568 1097,700.728 C1097,700.728 1097,700.728 1097,1093.728 C1097,1170.908 1001.46,1107.148 925,1117.728 C727.26,1145.078 672.06,1124.278 480,1178.728 C474.32,1180.338 473.137,1180.559 467.427,1182.789" style="stroke:#181818;stroke-width:1;" fill="none" id="Discarded-to-Teardown"/><polygon points="462.77,1184.608,472.608,1185.06,467.427,1182.789,469.698,1177.608,462.77,1184.608" fill="#181818" style="stroke:#181818;stroke-width:1;stroke-linejoin:miter;stroke-miterlimit:10;"/></g><!--link Teardown to *end*--><g class="link" data-entity-1="ent0036" data-entity-2="ent0041" id="lnk42" data-source-line="34" data-link-type="dependency"><path d="M419,1232.118 C419,1264.038 419,1313.568 419,1336.268" style="stroke:#181818;stroke-width:1;" fill="none" id="Teardown-to-*end*"/><polygon points="419,1341.268,423,1332.268,419,1336.268,415,1332.268,419,1341.268" fill="#181818" style="stroke:#181818;stroke-width:1;stroke-linejoin:miter;stroke-miterlimit:10;"/><text x="429.556" y="1278.227" fill="#000" font-size="13" textLength="104.375">clone destroyed,</text><text x="420" y="1293.537" fill="#000" font-size="13" textLength="123.487">temp dirs removed,</text><text x="426.148" y="1308.848" fill="#000" font-size="13" textLength="111.192">multipart aborted</text></g><?plantuml-src PLHBZXit4Dtp50K424R9Q8Jy32C8l8XY0yd2Tep4GE39WasMr1onMGr-ngEDaKFa33bOJf97IYsfbLbesCLNlrUlc7OkZ3hgWJfjTjie9TYrU8dqsQlsfxBBdkaNwSYx3PkzmPSsKLAYafYCJfpevlVryirNzEzV_r0zFLiezU6BFscvV46_5YviwNjwCtBK6P5JrZ6d-s3qc4jaMb7aX8jwCZBkrT6bUh-DqhcmXJlYhf-fwRlUlTBEjyYT5xEhLjEpsT46TeI_2Vp8KpRwA76tcBcllOH3Q0jt85UqUvvca7Sb7278e3qGAVLgSfmZ3AnCVS77vsX8s_qCU2hMw10aam4ayy5BgIbCHRxdw3RxGz1QDJe0Tc1x7tImb5WZqCpZHunEDXlW8-Uurnr6n35A10dP3ImbtrQE6V--UtgwfTn7oHZhOXRcvv3XLSPyg5D2O9ET1B9Hnl4gvre7mzuVoZoDrZJhKG_VG0LJQNEkB7kz9_oCgRPrmqzZqrz5VaaFBgEGnSntxQ8fBYDHWF_hMbrYKx9xv3Plw2YfIz2S5oFYhNmC5pbxxJTBgT0H4-TvkjEq6g7K5RlbJFpKwv9oTKUlGSBonBTIb-orRZcLuOgUM6tJkdozm0fKmOxYGgRAiqkx_yNvoIMZevsla3qOZv6-nHodR5UYb91TAE0eoa1UftmVjYAMiFCPSaQ_K8LIPyqricKOwWoQ36g5Y4s3pZYdA-YPui6b1i4Zy7SJMpXakN8uCNl2ewVaKavANMYgGdzZj8YXgNCzC_CnrCnsPcjcdWxDMb-cQLyjNfueUxQtz-1z6C5iJ2X_aCTc6uhFhf6bEuaeGIbiBrDqsnupsrmkZI9Qd-Vf8Sr4Bi3wQNKtmXaPzMxr85rQ_U3iYxk79FKs2VQH2NPA9JusjxU0hoiSznstfyqBT4jrnw9EFKntgb9SgxckwTGsGOKQKxDLNI_Vltpt1w5Qw0HlsQXpVmV4w_PAUjOrhyQ6Z3qFa9a_lar4FNQdbc1rrfskRtvaon2MzkcYYFy0?></g></svg>