<svg xmlns="http://www.w3.org/2000/svg" xmlns:xlink="http://www.w3.org/1999/xlink" version="1.1" data-diagram-type="CLASS" style="width:1527px;height:869px;background:#FFFFFF;" width="1527px" height="869px" viewBox="0 0 1527 869" zoomAndPan="magnify" preserveAspectRatio="none" contentStyleType="text/css"><?plantuml 1.2026.7?><defs/><g font-family="sans-serif" lengthAdjust="spacing"><g class="title" data-source-line="2"><text x="482.863" y="23.535" fill="#000" font-size="14" textLength="554.75" font-weight="700">PortCloak — Snapshot &amp; Manifest Domain Model (one snapshot = one realm)</text></g><!--class Snapshot--><g class="entity" data-qualified-name="Snapshot" id="ent0001" data-source-line="4"><rect x="783.3" y="44.488" width="268.997" height="229.371" fill="#F1F1F1" style="stroke:#181818;stroke-width:0.5;" rx="2.5" ry="2.5"/><ellipse cx="882.332" cy="60.488" rx="11" ry="11" fill="#ADD1B2" style="stroke:#181818;stroke-width:1;"/><path d="M884.805,66.631 Q884.224,66.93 883.585,67.08 Q882.946,67.229 882.24,67.229 Q879.734,67.229 878.414,65.577 Q877.094,63.925 877.094,60.804 Q877.094,57.675 878.414,56.023 Q879.734,54.371 882.24,54.371 Q882.946,54.371 883.593,54.521 Q884.241,54.67 884.805,54.969 L884.805,57.691 Q884.175,57.11 883.581,56.841 Q882.988,56.571 882.357,56.571 Q881.012,56.571 880.327,57.637 Q879.642,58.704 879.642,60.804 Q879.642,62.896 880.327,63.963 Q881.012,65.029 882.357,65.029 Q882.988,65.029 883.581,64.76 Q884.175,64.49 884.805,63.909 Z " fill="#000"/><text x="902.832" y="65.779" fill="#000" font-size="14" textLength="62.433">Snapshot</text><line x1="784.3" y1="76.488" x2="1051.297" y2="76.488" style="stroke:#181818;stroke-width:0.5;"/><g data-visibility-modifier="PUBLIC_FIELD"><ellipse cx="794.3" cy="90.232" rx="3" ry="3" fill="none" style="stroke:#038048;stroke-width:1;"/></g><text x="803.3" y="94.023" fill="#000" font-size="14" textLength="53.402">id: ULID</text><g data-visibility-modifier="PUBLIC_FIELD"><ellipse cx="794.3" cy="106.721" rx="3" ry="3" fill="none" style="stroke:#038048;stroke-width:1;"/></g><text x="803.3" y="110.512" fill="#000" font-size="14" textLength="104.187">createdAt: time</text><g data-visibility-modifier="PUBLIC_FIELD"><ellipse cx="794.3" cy="123.209" rx="3" ry="3" fill="none" style="stroke:#038048;stroke-width:1;"/></g><text x="803.3" y="127" fill="#000" font-size="14" textLength="151.177">schemaVersion: string</text><g data-visibility-modifier="PUBLIC_FIELD"><ellipse cx="794.3" cy="139.697" rx="3" ry="3" fill="none" style="stroke:#038048;stroke-width:1;"/></g><text x="803.3" y="143.488" fill="#000" font-size="14" textLength="163.687">portcloakVersion: string</text><g data-visibility-modifier="PUBLIC_FIELD"><ellipse cx="794.3" cy="156.186" rx="3" ry="3" fill="none" style="stroke:#038048;stroke-width:1;"/></g><text x="803.3" y="159.977" fill="#000" font-size="14" textLength="86.803">realm: string</text><g data-visibility-modifier="PUBLIC_FIELD"><ellipse cx="794.3" cy="172.674" rx="3" ry="3" fill="none" style="stroke:#038048;stroke-width:1;"/></g><text x="803.3" y="176.465" fill="#000" font-size="14" textLength="121.311">source: SourceRef</text><g data-visibility-modifier="PUBLIC_FIELD"><ellipse cx="794.3" cy="189.162" rx="3" ry="3" fill="none" style="stroke:#038048;stroke-width:1;"/></g><text x="803.3" y="192.953" fill="#000" font-size="14" textLength="117.899">files: []ArtifactRef</text><g data-visibility-modifier="PUBLIC_FIELD"><ellipse cx="794.3" cy="205.65" rx="3" ry="3" fill="none" style="stroke:#038048;stroke-width:1;"/></g><text x="803.3" y="209.441" fill="#000" font-size="14" textLength="167.063">manifest: RealmManifest</text><g data-visibility-modifier="PUBLIC_FIELD"><ellipse cx="794.3" cy="222.139" rx="3" ry="3" fill="none" style="stroke:#038048;stroke-width:1;"/></g><text x="803.3" y="225.93" fill="#000" font-size="14" textLength="242.997">completeness: CompletenessReport</text><g data-visibility-modifier="PUBLIC_FIELD"><ellipse cx="794.3" cy="238.627" rx="3" ry="3" fill="none" style="stroke:#038048;stroke-width:1;"/></g><text x="803.3" y="242.418" fill="#000" font-size="14" textLength="152.681">integrity: IntegrityTree</text><g data-visibility-modifier="PUBLIC_FIELD"><ellipse cx="794.3" cy="255.115" rx="3" ry="3" fill="none" style="stroke:#038048;stroke-width:1;"/></g><text x="803.3" y="258.906" fill="#000" font-size="14" textLength="179.286">encryption: EncryptionInfo</text><line x1="784.3" y1="265.859" x2="1051.297" y2="265.859" style="stroke:#181818;stroke-width:0.5;"/></g><!--class SourceRef--><g class="entity" data-qualified-name="SourceRef" id="ent0002" data-source-line="18"><rect x="7" y="391.568" width="363.606" height="130.441" fill="#F1F1F1" style="stroke:#181818;stroke-width:0.5;" rx="2.5" ry="2.5"/><ellipse cx="150.89" cy="407.568" rx="11" ry="11" fill="#ADD1B2" style="stroke:#181818;stroke-width:1;"/><path d="M153.363,413.711 Q152.782,414.01 152.143,414.16 Q151.503,414.309 150.798,414.309 Q148.291,414.309 146.971,412.657 Q145.651,411.005 145.651,407.884 Q145.651,404.755 146.971,403.103 Q148.291,401.451 150.798,401.451 Q151.503,401.451 152.151,401.601 Q152.798,401.75 153.363,402.049 L153.363,404.771 Q152.732,404.19 152.138,403.921 Q151.545,403.651 150.914,403.651 Q149.569,403.651 148.885,404.717 Q148.2,405.784 148.2,407.884 Q148.2,409.976 148.885,411.043 Q149.569,412.109 150.914,412.109 Q151.545,412.109 152.138,411.84 Q152.732,411.57 153.363,410.989 Z " fill="#000"/><text x="171.39" y="412.859" fill="#000" font-size="14" textLength="67.327">SourceRef</text><line x1="8" y1="423.568" x2="369.606" y2="423.568" style="stroke:#181818;stroke-width:0.5;"/><g data-visibility-modifier="PUBLIC_FIELD"><ellipse cx="18" cy="437.312" rx="3" ry="3" fill="none" style="stroke:#038048;stroke-width:1;"/></g><text x="27" y="441.103" fill="#000" font-size="14" textLength="158.607">keycloakVersion: string</text><g data-visibility-modifier="PUBLIC_FIELD"><ellipse cx="18" cy="453.801" rx="3" ry="3" fill="none" style="stroke:#038048;stroke-width:1;"/></g><text x="27" y="457.592" fill="#000" font-size="14" textLength="200.402">host / container / pod: string</text><g data-visibility-modifier="PUBLIC_FIELD"><ellipse cx="18" cy="470.289" rx="3" ry="3" fill="none" style="stroke:#038048;stroke-width:1;"/></g><text x="27" y="474.08" fill="#000" font-size="14" textLength="106.531">cloneRef: string</text><line x1="8" y1="481.033" x2="369.606" y2="481.033" style="stroke:#181818;stroke-width:0.5;"/><g data-visibility-modifier="PUBLIC_METHOD"><ellipse cx="18" cy="494.777" rx="3" ry="3" fill="#84BE84" style="stroke:#038048;stroke-width:1;"/></g><text x="27" y="498.568" fill="#000" font-size="14" textLength="226.652">kind: enum(local|ssh|docker|k8s)</text><g data-visibility-modifier="PUBLIC_METHOD"><ellipse cx="18" cy="511.266" rx="3" ry="3" fill="#84BE84" style="stroke:#038048;stroke-width:1;"/></g><text x="27" y="515.057" fill="#000" font-size="14" textLength="337.606">executionMode: enum(in-place|ephemeral-clone)</text></g><!--class ArtifactRef--><g class="entity" data-qualified-name="ArtifactRef" id="ent0003" data-source-line="26"><rect x="405.42" y="399.808" width="336.769" height="113.953" fill="#F1F1F1" style="stroke:#181818;stroke-width:0.5;" rx="2.5" ry="2.5"/><ellipse cx="533.676" cy="415.808" rx="11" ry="11" fill="#ADD1B2" style="stroke:#181818;stroke-width:1;"/><path d="M536.149,421.951 Q535.568,422.25 534.929,422.4 Q534.29,422.549 533.584,422.549 Q531.077,422.549 529.757,420.897 Q528.438,419.245 528.438,416.124 Q528.438,412.995 529.757,411.343 Q531.077,409.691 533.584,409.691 Q534.29,409.691 534.937,409.841 Q535.585,409.99 536.149,410.289 L536.149,413.011 Q535.518,412.43 534.925,412.161 Q534.331,411.891 533.7,411.891 Q532.356,411.891 531.671,412.957 Q530.986,414.024 530.986,416.124 Q530.986,418.216 531.671,419.283 Q532.356,420.349 533.7,420.349 Q534.331,420.349 534.925,420.08 Q535.518,419.81 536.149,419.229 Z " fill="#000"/><text x="554.176" y="421.099" fill="#000" font-size="14" textLength="71.757">ArtifactRef</text><line x1="406.42" y1="431.808" x2="741.189" y2="431.808" style="stroke:#181818;stroke-width:0.5;"/><g data-visibility-modifier="PUBLIC_FIELD"><ellipse cx="416.42" cy="445.552" rx="3" ry="3" fill="none" style="stroke:#038048;stroke-width:1;"/></g><text x="425.42" y="449.343" fill="#000" font-size="14" textLength="78.894">path: string</text><g data-visibility-modifier="PUBLIC_FIELD"><ellipse cx="416.42" cy="462.041" rx="3" ry="3" fill="none" style="stroke:#038048;stroke-width:1;"/></g><text x="425.42" y="465.832" fill="#000" font-size="14" textLength="80.835">bytes: int64</text><g data-visibility-modifier="PUBLIC_FIELD"><ellipse cx="416.42" cy="478.529" rx="3" ry="3" fill="none" style="stroke:#038048;stroke-width:1;"/></g><text x="425.42" y="482.32" fill="#000" font-size="14" textLength="98.54">sha256: string</text><line x1="406.42" y1="489.273" x2="741.189" y2="489.273" style="stroke:#181818;stroke-width:0.5;"/><g data-visibility-modifier="PUBLIC_METHOD"><ellipse cx="416.42" cy="503.017" rx="3" ry="3" fill="#84BE84" style="stroke:#038048;stroke-width:1;"/></g><text x="425.42" y="506.808" fill="#000" font-size="14" textLength="310.769">kind: enum(realm-json|users-json|keys|blob)</text></g><!--class RealmManifest--><g class="entity" data-qualified-name="RealmManifest" id="ent0004" data-source-line="33"><rect x="777.62" y="333.858" width="280.358" height="245.859" fill="#F1F1F1" style="stroke:#181818;stroke-width:0.5;" rx="2.5" ry="2.5"/><ellipse cx="863.876" cy="349.858" rx="11" ry="11" fill="#ADD1B2" style="stroke:#181818;stroke-width:1;"/><path d="M866.349,356.001 Q865.768,356.3 865.129,356.45 Q864.49,356.599 863.784,356.599 Q861.277,356.599 859.957,354.947 Q858.638,353.295 858.638,350.174 Q858.638,347.045 859.957,345.393 Q861.277,343.741 863.784,343.741 Q864.49,343.741 865.137,343.891 Q865.785,344.04 866.349,344.339 L866.349,347.061 Q865.718,346.48 865.125,346.211 Q864.531,345.941 863.9,345.941 Q862.556,345.941 861.871,347.007 Q861.186,348.074 861.186,350.174 Q861.186,352.266 861.871,353.333 Q862.556,354.399 863.9,354.399 Q864.531,354.399 865.125,354.13 Q865.718,353.86 866.349,353.279 Z " fill="#000"/><text x="884.376" y="355.149" fill="#000" font-size="14" textLength="99.347">RealmManifest</text><line x1="778.62" y1="365.858" x2="1056.978" y2="365.858" style="stroke:#181818;stroke-width:0.5;"/><g data-visibility-modifier="PUBLIC_FIELD"><ellipse cx="788.62" cy="379.602" rx="3" ry="3" fill="none" style="stroke:#038048;stroke-width:1;"/></g><text x="797.62" y="383.393" fill="#000" font-size="14" textLength="158.785">settings: RealmSettings</text><g data-visibility-modifier="PUBLIC_FIELD"><ellipse cx="788.62" cy="396.091" rx="3" ry="3" fill="none" style="stroke:#038048;stroke-width:1;"/></g><text x="797.62" y="399.882" fill="#000" font-size="14" textLength="150.151">keys: []KeyProviderRef</text><g data-visibility-modifier="PUBLIC_FIELD"><ellipse cx="788.62" cy="412.579" rx="3" ry="3" fill="none" style="stroke:#038048;stroke-width:1;"/></g><text x="797.62" y="416.37" fill="#000" font-size="14" textLength="164.739">clients: []ClientSummary</text><g data-visibility-modifier="PUBLIC_FIELD"><ellipse cx="788.62" cy="429.067" rx="3" ry="3" fill="none" style="stroke:#038048;stroke-width:1;"/></g><text x="797.62" y="432.858" fill="#000" font-size="14" textLength="205.078">clientScopes: []ScopeSummary</text><g data-visibility-modifier="PUBLIC_FIELD"><ellipse cx="788.62" cy="445.556" rx="3" ry="3" fill="none" style="stroke:#038048;stroke-width:1;"/></g><text x="797.62" y="449.347" fill="#000" font-size="14" textLength="134.613">roles: RoleSummary</text><g data-visibility-modifier="PUBLIC_FIELD"><ellipse cx="788.62" cy="462.044" rx="3" ry="3" fill="none" style="stroke:#038048;stroke-width:1;"/></g><text x="797.62" y="465.835" fill="#000" font-size="14" textLength="161.643">groups: GroupSummary</text><g data-visibility-modifier="PUBLIC_FIELD"><ellipse cx="788.62" cy="478.532" rx="3" ry="3" fill="none" style="stroke:#038048;stroke-width:1;"/></g><text x="797.62" y="482.323" fill="#000" font-size="14" textLength="138.858">users: UserSummary</text><g data-visibility-modifier="PUBLIC_FIELD"><ellipse cx="788.62" cy="495.02" rx="3" ry="3" fill="none" style="stroke:#038048;stroke-width:1;"/></g><text x="797.62" y="498.811" fill="#000" font-size="14" textLength="216.781">identityProviders: []IdpSummary</text><g data-visibility-modifier="PUBLIC_FIELD"><ellipse cx="788.62" cy="511.509" rx="3" ry="3" fill="none" style="stroke:#038048;stroke-width:1;"/></g><text x="797.62" y="515.3" fill="#000" font-size="14" textLength="254.358">userFederation: []FederationSummary</text><g data-visibility-modifier="PUBLIC_FIELD"><ellipse cx="788.62" cy="527.997" rx="3" ry="3" fill="none" style="stroke:#038048;stroke-width:1;"/></g><text x="797.62" y="531.788" fill="#000" font-size="14" textLength="180.469">authFlows: []FlowSummary</text><g data-visibility-modifier="PUBLIC_FIELD"><ellipse cx="788.62" cy="544.485" rx="3" ry="3" fill="none" style="stroke:#038048;stroke-width:1;"/></g><text x="797.62" y="548.276" fill="#000" font-size="14" textLength="129.049">secrets: []SecretRef</text><g data-visibility-modifier="PUBLIC_FIELD"><ellipse cx="788.62" cy="560.974" rx="3" ry="3" fill="none" style="stroke:#038048;stroke-width:1;"/></g><text x="797.62" y="564.765" fill="#000" font-size="14" textLength="246.593">externalDeps: []ExternalDependency</text><line x1="778.62" y1="571.718" x2="1056.978" y2="571.718" style="stroke:#181818;stroke-width:0.5;"/></g><!--class SecretRef--><g class="entity" data-qualified-name="SecretRef" id="ent0005" data-source-line="48"><rect x="219.99" y="639.718" width="525.632" height="113.953" fill="#F1F1F1" style="stroke:#181818;stroke-width:0.5;" rx="2.5" ry="2.5"/><ellipse cx="447.018" cy="655.718" rx="11" ry="11" fill="#ADD1B2" style="stroke:#181818;stroke-width:1;"/><path d="M449.491,661.861 Q448.91,662.16 448.271,662.31 Q447.632,662.459 446.927,662.459 Q444.42,662.459 443.1,660.807 Q441.78,659.155 441.78,656.034 Q441.78,652.905 443.1,651.253 Q444.42,649.601 446.927,649.601 Q447.632,649.601 448.28,649.751 Q448.927,649.9 449.491,650.199 L449.491,652.921 Q448.861,652.34 448.267,652.071 Q447.674,651.801 447.043,651.801 Q445.698,651.801 445.013,652.867 Q444.328,653.934 444.328,656.034 Q444.328,658.126 445.013,659.193 Q445.698,660.259 447.043,660.259 Q447.674,660.259 448.267,659.99 Q448.861,659.72 449.491,659.139 Z " fill="#000"/><text x="467.518" y="661.009" fill="#000" font-size="14" textLength="63.075">SecretRef</text><line x1="220.99" y1="671.718" x2="744.622" y2="671.718" style="stroke:#181818;stroke-width:0.5;"/><g data-visibility-modifier="PUBLIC_FIELD"><ellipse cx="230.99" cy="685.462" rx="3" ry="3" fill="none" style="stroke:#038048;stroke-width:1;"/></g><text x="239.99" y="689.253" fill="#000" font-size="14" textLength="102.546">location: string</text><g data-visibility-modifier="PUBLIC_FIELD"><ellipse cx="230.99" cy="701.951" rx="3" ry="3" fill="none" style="stroke:#038048;stroke-width:1;"/></g><text x="239.99" y="705.742" fill="#000" font-size="14" textLength="85.935">carried: bool</text><g data-visibility-modifier="PUBLIC_FIELD"><ellipse cx="230.99" cy="718.439" rx="3" ry="3" fill="none" style="stroke:#038048;stroke-width:1;"/></g><text x="239.99" y="722.23" fill="#000" font-size="14" textLength="91.649">masked: bool</text><line x1="220.99" y1="729.183" x2="744.622" y2="729.183" style="stroke:#181818;stroke-width:0.5;"/><g data-visibility-modifier="PUBLIC_METHOD"><ellipse cx="230.99" cy="742.927" rx="3" ry="3" fill="#84BE84" style="stroke:#038048;stroke-width:1;"/></g><text x="239.99" y="746.718" fill="#000" font-size="14" textLength="499.632">type: enum(client-secret|smtp|ldap-bind|idp-secret|key-private|authcfg)</text></g><!--class ExternalDependency--><g class="entity" data-qualified-name="ExternalDependency" id="ent0006" data-source-line="55"><rect x="780.95" y="639.718" width="405.716" height="113.953" fill="#F1F1F1" style="stroke:#181818;stroke-width:0.5;" rx="2.5" ry="2.5"/><ellipse cx="910.17" cy="655.718" rx="11" ry="11" fill="#ADD1B2" style="stroke:#181818;stroke-width:1;"/><path d="M912.643,661.861 Q912.062,662.16 911.423,662.31 Q910.783,662.459 910.078,662.459 Q907.571,662.459 906.251,660.807 Q904.931,659.155 904.931,656.034 Q904.931,652.905 906.251,651.253 Q907.571,649.601 910.078,649.601 Q910.783,649.601 911.431,649.751 Q912.078,649.9 912.643,650.199 L912.643,652.921 Q912.012,652.34 911.419,652.071 Q910.825,651.801 910.194,651.801 Q908.849,651.801 908.165,652.867 Q907.48,653.934 907.48,656.034 Q907.48,658.126 908.165,659.193 Q908.849,660.259 910.194,660.259 Q910.825,660.259 911.419,659.99 Q912.012,659.72 912.643,659.139 Z " fill="#000"/><text x="930.67" y="661.009" fill="#000" font-size="14" textLength="138.776">ExternalDependency</text><line x1="781.95" y1="671.718" x2="1185.666" y2="671.718" style="stroke:#181818;stroke-width:0.5;"/><g data-visibility-modifier="PUBLIC_FIELD"><ellipse cx="791.95" cy="685.462" rx="3" ry="3" fill="none" style="stroke:#038048;stroke-width:1;"/></g><text x="800.95" y="689.253" fill="#000" font-size="14" textLength="85.716">name: string</text><g data-visibility-modifier="PUBLIC_FIELD"><ellipse cx="791.95" cy="701.951" rx="3" ry="3" fill="none" style="stroke:#038048;stroke-width:1;"/></g><text x="800.95" y="705.742" fill="#000" font-size="14" textLength="121.987">detectedAt: string</text><g data-visibility-modifier="PUBLIC_FIELD"><ellipse cx="791.95" cy="718.439" rx="3" ry="3" fill="none" style="stroke:#038048;stroke-width:1;"/></g><text x="800.95" y="722.23" fill="#000" font-size="14" textLength="287.294">action: "provision manually at destination"</text><line x1="781.95" y1="729.183" x2="1185.666" y2="729.183" style="stroke:#181818;stroke-width:0.5;"/><g data-visibility-modifier="PUBLIC_METHOD"><ellipse cx="791.95" cy="742.927" rx="3" ry="3" fill="#84BE84" style="stroke:#038048;stroke-width:1;"/></g><text x="800.95" y="746.718" fill="#000" font-size="14" textLength="379.716">type: enum(theme|provider-jar|keystore-file|truststore)</text></g><g class="entity" data-qualified-name="GMN7" id="ent0008" data-source-line="62"><path d="M834.27,813.668 L834.27,854.289 A0,0 0 0 0 834.27,854.289 L1133.329,854.289 A0,0 0 0 0 1133.329,854.289 L1133.329,823.668 L1123.329,813.668 L987.8,813.668 L983.8,753.888 L979.8,813.668 L834.27,813.668 A0,0 0 0 0 834.27,813.668" style="stroke:#181818;stroke-width:0.5;" fill="#FEFFDD"/><path d="M1123.329,813.668 L1123.329,823.668 L1133.329,823.668 L1123.329,813.668" style="stroke:#181818;stroke-width:0.5;" fill="#FEFFDD"/><text x="840.27" y="831.237" fill="#000" font-size="13" textLength="261.301">Detected and REPORTED, never migrated.</text><text x="840.27" y="846.547" fill="#000" font-size="13" textLength="278.059">These live outside the realm representation.</text></g><!--class CompletenessReport--><g class="entity" data-qualified-name="CompletenessReport" id="ent0010" data-source-line="66"><rect x="1093.17" y="391.568" width="183.261" height="130.441" fill="#F1F1F1" style="stroke:#181818;stroke-width:0.5;" rx="2.5" ry="2.5"/><ellipse cx="1112.859" cy="407.568" rx="11" ry="11" fill="#ADD1B2" style="stroke:#181818;stroke-width:1;"/><path d="M1115.332,413.711 Q1114.751,414.01 1114.112,414.16 Q1113.473,414.309 1112.767,414.309 Q1110.26,414.309 1108.941,412.657 Q1107.621,411.005 1107.621,407.884 Q1107.621,404.755 1108.941,403.103 Q1110.26,401.451 1112.767,401.451 Q1113.473,401.451 1114.12,401.601 Q1114.768,401.75 1115.332,402.049 L1115.332,404.771 Q1114.701,404.19 1114.108,403.921 Q1113.514,403.651 1112.883,403.651 Q1111.539,403.651 1110.854,404.717 Q1110.169,405.784 1110.169,407.884 Q1110.169,409.976 1110.854,411.043 Q1111.539,412.109 1112.883,412.109 Q1113.514,412.109 1114.108,411.84 Q1114.701,411.57 1115.332,410.989 Z " fill="#000"/><text x="1127.901" y="412.859" fill="#000" font-size="14" textLength="140.841">CompletenessReport</text><line x1="1094.17" y1="423.568" x2="1275.431" y2="423.568" style="stroke:#181818;stroke-width:0.5;"/><g data-visibility-modifier="PUBLIC_FIELD"><ellipse cx="1104.17" cy="437.312" rx="3" ry="3" fill="none" style="stroke:#038048;stroke-width:1;"/></g><text x="1113.17" y="441.103" fill="#000" font-size="14" textLength="138.77">captured: []Category</text><g data-visibility-modifier="PUBLIC_FIELD"><ellipse cx="1104.17" cy="453.801" rx="3" ry="3" fill="none" style="stroke:#038048;stroke-width:1;"/></g><text x="1113.17" y="457.592" fill="#000" font-size="14" textLength="122.124">partial: []Category</text><g data-visibility-modifier="PUBLIC_FIELD"><ellipse cx="1104.17" cy="470.289" rx="3" ry="3" fill="none" style="stroke:#038048;stroke-width:1;"/></g><text x="1113.17" y="474.08" fill="#000" font-size="14" textLength="131.646">missing: []Category</text><g data-visibility-modifier="PUBLIC_FIELD"><ellipse cx="1104.17" cy="486.777" rx="3" ry="3" fill="none" style="stroke:#038048;stroke-width:1;"/></g><text x="1113.17" y="490.568" fill="#000" font-size="14" textLength="157.261">outOfScope: []Category</text><g data-visibility-modifier="PUBLIC_FIELD"><ellipse cx="1104.17" cy="503.266" rx="3" ry="3" fill="none" style="stroke:#038048;stroke-width:1;"/></g><text x="1113.17" y="507.057" fill="#000" font-size="14" textLength="119.068">warnings: []string</text><line x1="1094.17" y1="514.01" x2="1275.431" y2="514.01" style="stroke:#181818;stroke-width:0.5;"/></g><!--class EncryptionInfo--><g class="entity" data-qualified-name="EncryptionInfo" id="ent0011" data-source-line="74"><rect x="1311.19" y="408.048" width="179.234" height="97.465" fill="#F1F1F1" style="stroke:#181818;stroke-width:0.5;" rx="2.5" ry="2.5"/><ellipse cx="1348.192" cy="424.048" rx="11" ry="11" fill="#ADD1B2" style="stroke:#181818;stroke-width:1;"/><path d="M1350.665,430.191 Q1350.084,430.49 1349.445,430.64 Q1348.805,430.789 1348.1,430.789 Q1345.593,430.789 1344.273,429.137 Q1342.953,427.485 1342.953,424.364 Q1342.953,421.235 1344.273,419.583 Q1345.593,417.931 1348.1,417.931 Q1348.805,417.931 1349.453,418.081 Q1350.1,418.23 1350.665,418.529 L1350.665,421.251 Q1350.034,420.67 1349.44,420.401 Q1348.847,420.131 1348.216,420.131 Q1346.871,420.131 1346.187,421.197 Q1345.502,422.264 1345.502,424.364 Q1345.502,426.456 1346.187,427.523 Q1346.871,428.589 1348.216,428.589 Q1348.847,428.589 1349.44,428.32 Q1350.034,428.05 1350.665,427.469 Z " fill="#000"/><text x="1367.081" y="429.339" fill="#000" font-size="14" textLength="98.342">EncryptionInfo</text><line x1="1312.19" y1="440.048" x2="1489.424" y2="440.048" style="stroke:#181818;stroke-width:0.5;"/><g data-visibility-modifier="PUBLIC_FIELD"><ellipse cx="1322.19" cy="453.792" rx="3" ry="3" fill="none" style="stroke:#038048;stroke-width:1;"/></g><text x="1331.19" y="457.583" fill="#000" font-size="14" textLength="92.606">enabled: bool</text><g data-visibility-modifier="PUBLIC_FIELD"><ellipse cx="1322.19" cy="470.281" rx="3" ry="3" fill="none" style="stroke:#038048;stroke-width:1;"/></g><text x="1331.19" y="474.072" fill="#000" font-size="14" textLength="114.304">algorithm: string</text><g data-visibility-modifier="PUBLIC_FIELD"><ellipse cx="1322.19" cy="486.769" rx="3" ry="3" fill="none" style="stroke:#038048;stroke-width:1;"/></g><text x="1331.19" y="490.56" fill="#000" font-size="14" textLength="153.234">recipients / kdf: string</text><line x1="1312.19" y1="497.513" x2="1489.424" y2="497.513" style="stroke:#181818;stroke-width:0.5;"/></g><g class="entity" data-qualified-name="GMN12" id="ent0013" data-source-line="80"><path d="M1289.12,668.728 L1289.12,724.66 A0,0 0 0 0 1289.12,724.66 L1512.477,724.66 A0,0 0 0 0 1512.477,724.66 L1512.477,678.728 L1502.477,668.728 L1404.8,668.728 L1400.8,505.928 L1396.8,668.728 L1289.12,668.728 A0,0 0 0 0 1289.12,668.728" style="stroke:#181818;stroke-width:0.5;" fill="#FEFFDD"/><path d="M1502.477,668.728 L1502.477,678.728 L1512.477,678.728 L1502.477,668.728" style="stroke:#181818;stroke-width:0.5;" fill="#FEFFDD"/><text x="1295.12" y="686.297" fill="#000" font-size="13" textLength="123.932">Opt-in, not default.</text><text x="1295.12" y="701.607" fill="#000" font-size="13" textLength="202.357">When disabled the bundle holds</text><text x="1295.12" y="716.918" fill="#000" font-size="13" textLength="198.352">UNMASKED secrets in the clear.</text></g><!--reverse link Snapshot to SourceRef--><g class="link" data-entity-1="ent0001" data-entity-2="ent0002" id="lnk15" data-source-line="85" data-link-type="aggregation"><path d="M771.459,198.155 C662.339,228.515 517.54,273.848 387.8,333.858 C352.77,350.058 316.26,371.078 284.22,391.098" style="stroke:#181818;stroke-width:1;" fill="none" id="Snapshot-backto-SourceRef" codeLine="85"/><polygon points="783.02,194.938,776.167,192.693,771.459,198.155,778.312,200.4,783.02,194.938" fill="none" style="stroke:#181818;stroke-width:1;stroke-linejoin:miter;stroke-miterlimit:10;"/><text x="767.003" y="194.15" fill="#000" font-size="13">1</text><text x="286.231" y="380.678" fill="#000" font-size="13">1</text></g><!--reverse link Snapshot to ArtifactRef--><g class="link" data-entity-1="ent0001" data-entity-2="ent0003" id="lnk16" data-source-line="86" data-link-type="aggregation"><path d="M776.199,281.859 C726.229,324.799 680.66,363.958 639.42,399.388" style="stroke:#181818;stroke-width:1;" fill="none" id="Snapshot-backto-ArtifactRef" codeLine="86"/><polygon points="785.3,274.038,778.142,274.915,776.199,281.859,783.356,280.982,785.3,274.038" fill="none" style="stroke:#181818;stroke-width:1;stroke-linejoin:miter;stroke-miterlimit:10;"/><text x="768.563" y="294.456" fill="#000" font-size="13">1</text><text x="641.067" y="389.066" fill="#000" font-size="13">*</text></g><!--reverse link Snapshot to RealmManifest--><g class="link" data-entity-1="ent0001" data-entity-2="ent0004" id="lnk17" data-source-line="87" data-link-type="aggregation"><path d="M917.8,286.038 C917.8,305.558 917.8,313.908 917.8,333.628" style="stroke:#181818;stroke-width:1;" fill="none" id="Snapshot-backto-RealmManifest" codeLine="87"/><polygon points="917.8,274.038,913.8,280.038,917.8,286.038,921.8,280.038,917.8,274.038" fill="none" style="stroke:#181818;stroke-width:1;stroke-linejoin:miter;stroke-miterlimit:10;"/><text x="909.551" y="294.456" fill="#000" font-size="13">1</text><text x="909.563" y="323.244" fill="#000" font-size="13">1</text></g><!--reverse link Snapshot to CompletenessReport--><g class="link" data-entity-1="ent0001" data-entity-2="ent0010" id="lnk18" data-source-line="88" data-link-type="aggregation"><path d="M1029.697,282.902 C1047.787,302.822 1058.33,314.478 1075.8,333.858 C1092.54,352.408 1110.65,372.618 1127.21,391.148" style="stroke:#181818;stroke-width:1;" fill="none" id="Snapshot-backto-CompletenessReport" codeLine="88"/><polygon points="1021.63,274.018,1022.703,281.149,1029.697,282.902,1028.625,275.771,1021.63,274.018" fill="none" style="stroke:#181818;stroke-width:1;stroke-linejoin:miter;stroke-miterlimit:10;"/><text x="1020.033" y="294.434" fill="#000" font-size="13">1</text><text x="1112.486" y="380.734" fill="#000" font-size="13">1</text></g><!--reverse link Snapshot to EncryptionInfo--><g class="link" data-entity-1="ent0001" data-entity-2="ent0011" id="lnk19" data-source-line="89" data-link-type="aggregation"><path d="M1063.884,210.968 C1139.064,240.598 1220.79,279.308 1293.8,333.858 C1321.44,354.498 1347.13,383.308 1366.41,407.738" style="stroke:#181818;stroke-width:1;" fill="none" id="Snapshot-backto-EncryptionInfo" codeLine="89"/><polygon points="1052.72,206.568,1056.835,212.49,1063.884,210.968,1059.769,205.047,1052.72,206.568" fill="none" style="stroke:#181818;stroke-width:1;stroke-linejoin:miter;stroke-miterlimit:10;"/><text x="1060.323" y="206.327" fill="#000" font-size="13">1</text><text x="1353.026" y="397.377" fill="#000" font-size="13">1</text></g><!--reverse link RealmManifest to SecretRef--><g class="link" data-entity-1="ent0004" data-entity-2="ent0005" id="lnk20" data-source-line="90" data-link-type="aggregation"><path d="M767.247,575.442 C761.387,579.172 765.64,576.318 759.8,579.718 C721.61,601.928 678.35,622.148 637.56,639.258" style="stroke:#181818;stroke-width:1;" fill="none" id="RealmManifest-backto-SecretRef" codeLine="90"/><polygon points="777.37,568.998,770.161,568.846,767.247,575.442,774.456,575.595,777.37,568.998" fill="none" style="stroke:#181818;stroke-width:1;stroke-linejoin:miter;stroke-miterlimit:10;"/><text x="761.478" y="572.301" fill="#000" font-size="13">1</text><text x="650.071" y="628.931" fill="#000" font-size="13">*</text></g><!--reverse link RealmManifest to ExternalDependency--><g class="link" data-entity-1="ent0004" data-entity-2="ent0006" id="lnk21" data-source-line="91" data-link-type="aggregation"><path d="M954.878,591.441 C960.638,612.201 963.16,621.278 968.15,639.248" style="stroke:#181818;stroke-width:1;" fill="none" id="RealmManifest-backto-ExternalDependency" codeLine="91"/><polygon points="951.67,579.878,949.42,586.729,954.878,591.441,957.129,584.59,951.67,579.878" fill="none" style="stroke:#181818;stroke-width:1;stroke-linejoin:miter;stroke-miterlimit:10;"/><text x="945.497" y="600.414" fill="#000" font-size="13">1</text><text x="959.892" y="628.92" fill="#000" font-size="13">*</text></g><?plantuml-src TLNDRXit4BxhAGOgKCHjDaMBDYW4z61OSc6ahWt9QG-63nHtLik8InBah9D5jq0U8a_O9-cGkv8eMT5196TcETzyyyEmLSO9BnfO2xdTUDkQyifgw-6Rw_IRa2ADS6yzNMahjl3Vvo-mCiA5sX9y2xV2g0e3mTmsGXcujILgU6KDGjXP_GRnw57evc8oaLg4SBZYdmd0zwgSmVi_RkPnBzcGiBoa6P1gC8g2hB4HVw4FofeP1FBARAB2CImPOPtH9N-v8DZMIvp1AgrBhAAmKXh331wVBZsfIaWQvSqOrmoMyPvTc0cWRPn6GeE1lxpAJakCW590Xd3Z5NKpkDbj7pocQD18tpbAS1Vx_OsfxEJVFJqxZ0C_d2Lc24tRlD9M2js7KFUbbLlq_VRNS95iiFiQ5RNb1Fq0qXhY7A7dlRDbRe6VKBOHHipVw4cPmcaXiKV7zACNkc071fEtj6Dy-qlsq3CY1_1EK9txMdSKAMUAtlwSybABdtvvcrjauQOi5X-2DNqREB9Xox66Vgtj-kBWzoXFW-U0H7nb69Eu6eyZModjxx2xz_PPbUZ7p4kjq51INgNjgcqQuRk3RYMj6uecxJAzjwcQbhnaqjXMZiM_npMJfu2uy7d9f0p5SDFjOIL7D-NfXzV8EZ5KqUFJuPIPYPRgQsq_fXlY9jC5v3uRebobxHWzVYBqHkWvkgHS7Cve69diiYBTVJYmJPtRbSx0Kp4uwKD3hjUbSCMQ4zkhqkqqd8N2UVNC3Tz7jBBQfEgAHKudHIo5zmgvBjRMwg55mtP_teDw2VW5EehbtBkHt-A3yAcWo7eiuZpeoRU1qZcXCQB174d9xIx74NMGSiadnDDqSMn1u27I2gqx40GbLwKoAQefepMMa94JsGPiTGOrNpaV_O0m9ImNztVBXyNyDHXyvXPkrCR7EVc63Hzg30XQFIFObW971HpZC77vttbMS-j7tsycV3z4xpl2NWwmWJ0f7BK-4ioDm9usTgWSVYv82NqgRbG8pCIfcF7SLQbDJZKVXJT3Spu-dSwGux4uu44ZrZhFlz1ybQAwEPxwKhdKm3pajcK-dqufFnwz07UE2cLUHt8uMvLeDKLo_wxHGAb2yfvuNVCZoMzYRNKPPydxFsylL-yMSnXxYYTRCfCQXS_vthzvqn-dO8iYhOVNwANwksa-JSz_V_mydJKvyqITjJjXv7YWvg0E4-FhDcSg-dy0?></g></svg>