<!--
  Copyright 2026 Muhammad Salah
  SPDX-License-Identifier: Apache-2.0
-->
<svg xmlns="http://www.w3.org/2000/svg" xmlns:xlink="http://www.w3.org/1999/xlink" version="1.1" data-diagram-type="CLASS" style="width:1226px;height:537px;background:#FFFFFF;" width="1226px" height="537px" viewBox="0 0 1226 537" zoomAndPan="magnify" preserveAspectRatio="none" contentStyleType="text/css"><?plantuml 1.2026.7?><defs/><g font-family="sans-serif" lengthAdjust="spacing"><g class="title" data-source-line="2"><text x="421.945" y="23.535" fill="#000" font-size="14" textLength="375.983" font-weight="700">PortCloak — Storage Backends &amp; Transfer Contracts</text></g><!--class BlobStore--><g class="entity" data-qualified-name="BlobStore" id="ent0001" data-source-line="4"><rect x="193.55" y="44.488" width="320.239" height="196.395" fill="#F1F1F1" style="stroke:#181818;stroke-width:0.5;" rx="2.5" ry="2.5"/><ellipse cx="317.212" cy="60.488" rx="11" ry="11" fill="#B4A7E5" style="stroke:#181818;stroke-width:1;"/><path d="M313.64,56.753 L313.64,54.595 L321.019,54.595 L321.019,56.753 L318.554,56.753 L318.554,64.83 L321.019,64.83 L321.019,66.988 L313.64,66.988 L313.64,64.83 L316.105,64.83 L316.105,56.753 Z " fill="#000"/><text x="337.712" y="65.779" fill="#000" font-size="14" textLength="64.415" font-style="italic">BlobStore</text><line x1="194.55" y1="76.488" x2="512.789" y2="76.488" style="stroke:#181818;stroke-width:0.5;"/><line x1="194.55" y1="84.488" x2="512.789" y2="84.488" style="stroke:#181818;stroke-width:0.5;"/><g data-visibility-modifier="PUBLIC_METHOD"><ellipse cx="204.55" cy="98.232" rx="3" ry="3" fill="#84BE84" style="stroke:#038048;stroke-width:1;"/></g><text x="213.55" y="102.023" fill="#000" font-size="14" textLength="167.48">Stat(ctx, key): ObjectInfo</text><g data-visibility-modifier="PUBLIC_METHOD"><ellipse cx="204.55" cy="114.721" rx="3" ry="3" fill="#84BE84" style="stroke:#038048;stroke-width:1;"/></g><text x="213.55" y="118.512" fill="#000" font-size="14" textLength="209.433">Put(ctx, key, r, opts): PutResult</text><g data-visibility-modifier="PUBLIC_METHOD"><ellipse cx="204.55" cy="131.209" rx="3" ry="3" fill="#84BE84" style="stroke:#038048;stroke-width:1;"/></g><text x="213.55" y="135" fill="#000" font-size="14" textLength="217.472">Get(ctx, key, w, opts): GetResult</text><g data-visibility-modifier="PUBLIC_METHOD"><ellipse cx="204.55" cy="147.697" rx="3" ry="3" fill="#84BE84" style="stroke:#038048;stroke-width:1;"/></g><text x="213.55" y="151.488" fill="#000" font-size="14" textLength="191.55">List(ctx, prefix): []ObjectInfo</text><g data-visibility-modifier="PUBLIC_METHOD"><ellipse cx="204.55" cy="164.186" rx="3" ry="3" fill="#84BE84" style="stroke:#038048;stroke-width:1;"/></g><text x="213.55" y="167.977" fill="#000" font-size="14" textLength="147.868">Delete(ctx, key): error</text><g data-visibility-modifier="PUBLIC_METHOD"><ellipse cx="204.55" cy="180.674" rx="3" ry="3" fill="#84BE84" style="stroke:#038048;stroke-width:1;"/></g><text x="213.55" y="184.465" fill="#000" font-size="14" textLength="216.925">InitMultipart(ctx, key): UploadID</text><g data-visibility-modifier="PUBLIC_METHOD"><ellipse cx="204.55" cy="197.162" rx="3" ry="3" fill="#84BE84" style="stroke:#038048;stroke-width:1;"/></g><text x="213.55" y="200.953" fill="#000" font-size="14" textLength="200.245">PutPart(ctx, id, n, r): PartETag</text><g data-visibility-modifier="PUBLIC_METHOD"><ellipse cx="204.55" cy="213.65" rx="3" ry="3" fill="#84BE84" style="stroke:#038048;stroke-width:1;"/></g><text x="213.55" y="217.441" fill="#000" font-size="14" textLength="294.239">CompleteMultipart(ctx, id, parts): PutResult</text><g data-visibility-modifier="PUBLIC_METHOD"><ellipse cx="204.55" cy="230.139" rx="3" ry="3" fill="#84BE84" style="stroke:#038048;stroke-width:1;"/></g><text x="213.55" y="233.93" fill="#000" font-size="14" textLength="193.881">AbortMultipart(ctx, id): error</text></g><!--class ResumableTransfer--><g class="entity" data-qualified-name="ResumableTransfer" id="ent0002" data-source-line="16"><rect x="548.59" y="102.198" width="260.158" height="80.977" fill="#F1F1F1" style="stroke:#181818;stroke-width:0.5;" rx="2.5" ry="2.5"/><ellipse cx="609.044" cy="118.198" rx="11" ry="11" fill="#B4A7E5" style="stroke:#181818;stroke-width:1;"/><path d="M605.471,114.463 L605.471,112.305 L612.851,112.305 L612.851,114.463 L610.385,114.463 L610.385,122.54 L612.851,122.54 L612.851,124.698 L605.471,124.698 L605.471,122.54 L607.937,122.54 L607.937,114.463 Z " fill="#000"/><text x="629.544" y="123.489" fill="#000" font-size="14" textLength="130.751" font-style="italic">ResumableTransfer</text><line x1="549.59" y1="134.198" x2="807.748" y2="134.198" style="stroke:#181818;stroke-width:0.5;"/><line x1="549.59" y1="142.198" x2="807.748" y2="142.198" style="stroke:#181818;stroke-width:0.5;"/><g data-visibility-modifier="PUBLIC_METHOD"><ellipse cx="559.59" cy="155.942" rx="3" ry="3" fill="#84BE84" style="stroke:#038048;stroke-width:1;"/></g><text x="568.59" y="159.733" fill="#000" font-size="14" textLength="234.158">Resume(ctx, checkpoint): Progress</text><g data-visibility-modifier="PUBLIC_METHOD"><ellipse cx="559.59" cy="172.431" rx="3" ry="3" fill="#84BE84" style="stroke:#038048;stroke-width:1;"/></g><text x="568.59" y="176.222" fill="#000" font-size="14" textLength="185.233">Checkpoint(): TransferState</text></g><!--class DiskStore--><g class="entity" data-qualified-name="DiskStore" id="ent0003" data-source-line="21"><rect x="232.29" y="300.888" width="96.757" height="48" fill="#F1F1F1" style="stroke:#181818;stroke-width:0.5;" rx="2.5" ry="2.5"/><ellipse cx="247.29" cy="316.888" rx="11" ry="11" fill="#ADD1B2" style="stroke:#181818;stroke-width:1;"/><path d="M249.763,323.031 Q249.182,323.33 248.543,323.48 Q247.904,323.629 247.198,323.629 Q244.691,323.629 243.372,321.977 Q242.052,320.325 242.052,317.204 Q242.052,314.075 243.372,312.423 Q244.691,310.771 247.198,310.771 Q247.904,310.771 248.551,310.921 Q249.199,311.07 249.763,311.369 L249.763,314.091 Q249.132,313.51 248.539,313.241 Q247.945,312.971 247.314,312.971 Q245.97,312.971 245.285,314.037 Q244.6,315.104 244.6,317.204 Q244.6,319.296 245.285,320.363 Q245.97,321.429 247.314,321.429 Q247.945,321.429 248.539,321.16 Q249.132,320.89 249.763,320.309 Z " fill="#000"/><text x="261.29" y="322.179" fill="#000" font-size="14" textLength="64.757">DiskStore</text><line x1="233.29" y1="332.888" x2="328.047" y2="332.888" style="stroke:#181818;stroke-width:0.5;"/><line x1="233.29" y1="340.888" x2="328.047" y2="340.888" style="stroke:#181818;stroke-width:0.5;"/></g><!--class SftpStore--><g class="entity" data-qualified-name="SftpStore" id="ent0004" data-source-line="22"><rect x="481.85" y="300.888" width="93.64" height="48" fill="#F1F1F1" style="stroke:#181818;stroke-width:0.5;" rx="2.5" ry="2.5"/><ellipse cx="496.85" cy="316.888" rx="11" ry="11" fill="#ADD1B2" style="stroke:#181818;stroke-width:1;"/><path d="M499.323,323.031 Q498.742,323.33 498.103,323.48 Q497.464,323.629 496.758,323.629 Q494.251,323.629 492.932,321.977 Q491.612,320.325 491.612,317.204 Q491.612,314.075 492.932,312.423 Q494.251,310.771 496.758,310.771 Q497.464,310.771 498.111,310.921 Q498.759,311.07 499.323,311.369 L499.323,314.091 Q498.692,313.51 498.099,313.241 Q497.505,312.971 496.874,312.971 Q495.53,312.971 494.845,314.037 Q494.16,315.104 494.16,317.204 Q494.16,319.296 494.845,320.363 Q495.53,321.429 496.874,321.429 Q497.505,321.429 498.099,321.16 Q498.692,320.89 499.323,320.309 Z " fill="#000"/><text x="510.85" y="322.179" fill="#000" font-size="14" textLength="61.64">SftpStore</text><line x1="482.85" y1="332.888" x2="574.49" y2="332.888" style="stroke:#181818;stroke-width:0.5;"/><line x1="482.85" y1="340.888" x2="574.49" y2="340.888" style="stroke:#181818;stroke-width:0.5;"/></g><!--class S3Store--><g class="entity" data-qualified-name="S3Store" id="ent0005" data-source-line="23"><rect x="364.02" y="300.888" width="83.297" height="48" fill="#F1F1F1" style="stroke:#181818;stroke-width:0.5;" rx="2.5" ry="2.5"/><ellipse cx="379.02" cy="316.888" rx="11" ry="11" fill="#ADD1B2" style="stroke:#181818;stroke-width:1;"/><path d="M381.493,323.031 Q380.912,323.33 380.273,323.48 Q379.634,323.629 378.928,323.629 Q376.421,323.629 375.102,321.977 Q373.782,320.325 373.782,317.204 Q373.782,314.075 375.102,312.423 Q376.421,310.771 378.928,310.771 Q379.634,310.771 380.281,310.921 Q380.929,311.07 381.493,311.369 L381.493,314.091 Q380.862,313.51 380.269,313.241 Q379.675,312.971 379.044,312.971 Q377.7,312.971 377.015,314.037 Q376.33,315.104 376.33,317.204 Q376.33,319.296 377.015,320.363 Q377.7,321.429 379.044,321.429 Q379.675,321.429 380.269,321.16 Q380.862,320.89 381.493,320.309 Z " fill="#000"/><text x="393.02" y="322.179" fill="#000" font-size="14" textLength="51.297">S3Store</text><line x1="365.02" y1="332.888" x2="446.317" y2="332.888" style="stroke:#181818;stroke-width:0.5;"/><line x1="365.02" y1="340.888" x2="446.317" y2="340.888" style="stroke:#181818;stroke-width:0.5;"/></g><!--class AzureBlobStore--><g class="entity" data-qualified-name="AzureBlobStore" id="ent0006" data-source-line="24"><rect x="610.51" y="300.888" width="136.316" height="48" fill="#F1F1F1" style="stroke:#181818;stroke-width:0.5;" rx="2.5" ry="2.5"/><ellipse cx="625.51" cy="316.888" rx="11" ry="11" fill="#ADD1B2" style="stroke:#181818;stroke-width:1;"/><path d="M627.983,323.031 Q627.402,323.33 626.763,323.48 Q626.124,323.629 625.418,323.629 Q622.911,323.629 621.592,321.977 Q620.272,320.325 620.272,317.204 Q620.272,314.075 621.592,312.423 Q622.911,310.771 625.418,310.771 Q626.124,310.771 626.771,310.921 Q627.419,311.07 627.983,311.369 L627.983,314.091 Q627.352,313.51 626.759,313.241 Q626.165,312.971 625.534,312.971 Q624.19,312.971 623.505,314.037 Q622.82,315.104 622.82,317.204 Q622.82,319.296 623.505,320.363 Q624.19,321.429 625.534,321.429 Q626.165,321.429 626.759,321.16 Q627.352,320.89 627.983,320.309 Z " fill="#000"/><text x="639.51" y="322.179" fill="#000" font-size="14" textLength="104.316">AzureBlobStore</text><line x1="611.51" y1="332.888" x2="745.826" y2="332.888" style="stroke:#181818;stroke-width:0.5;"/><line x1="611.51" y1="340.888" x2="745.826" y2="340.888" style="stroke:#181818;stroke-width:0.5;"/></g><!--class RetryPolicy--><g class="entity" data-qualified-name="RetryPolicy" id="ent0014" data-source-line="35"><rect x="298.71" y="408.888" width="209.914" height="113.953" fill="#F1F1F1" style="stroke:#181818;stroke-width:0.5;" rx="2.5" ry="2.5"/><ellipse cx="362.493" cy="424.888" rx="11" ry="11" fill="#ADD1B2" style="stroke:#181818;stroke-width:1;"/><path d="M364.966,431.031 Q364.385,431.33 363.746,431.48 Q363.106,431.629 362.401,431.629 Q359.894,431.629 358.574,429.977 Q357.254,428.325 357.254,425.204 Q357.254,422.075 358.574,420.423 Q359.894,418.771 362.401,418.771 Q363.106,418.771 363.754,418.921 Q364.401,419.07 364.966,419.369 L364.966,422.091 Q364.335,421.51 363.741,421.241 Q363.148,420.971 362.517,420.971 Q361.172,420.971 360.488,422.037 Q359.803,423.104 359.803,425.204 Q359.803,427.296 360.488,428.363 Q361.172,429.429 362.517,429.429 Q363.148,429.429 363.741,429.16 Q364.335,428.89 364.966,428.309 Z " fill="#000"/><text x="382.993" y="430.179" fill="#000" font-size="14" textLength="73.849">RetryPolicy</text><line x1="299.71" y1="440.888" x2="507.624" y2="440.888" style="stroke:#181818;stroke-width:0.5;"/><g data-visibility-modifier="PUBLIC_FIELD"><ellipse cx="309.71" cy="454.632" rx="3" ry="3" fill="none" style="stroke:#038048;stroke-width:1;"/></g><text x="318.71" y="458.423" fill="#000" font-size="14" textLength="118.405">maxAttempts: int</text><g data-visibility-modifier="PUBLIC_FIELD"><ellipse cx="309.71" cy="471.121" rx="3" ry="3" fill="none" style="stroke:#038048;stroke-width:1;"/></g><text x="318.71" y="474.912" fill="#000" font-size="14" textLength="183.914">baseDelay / maxDelay: dur</text><g data-visibility-modifier="PUBLIC_FIELD"><ellipse cx="309.71" cy="487.609" rx="3" ry="3" fill="none" style="stroke:#038048;stroke-width:1;"/></g><text x="318.71" y="491.4" fill="#000" font-size="14" textLength="71.224">jitter: bool</text><line x1="299.71" y1="498.353" x2="507.624" y2="498.353" style="stroke:#181818;stroke-width:0.5;"/><g data-visibility-modifier="PUBLIC_METHOD"><ellipse cx="309.71" cy="512.097" rx="3" ry="3" fill="#84BE84" style="stroke:#038048;stroke-width:1;"/></g><text x="318.71" y="515.888" fill="#000" font-size="14" textLength="127.477">retryable(err): bool</text></g><!--class CircuitBreaker--><g class="entity" data-qualified-name="CircuitBreaker" id="ent0015" data-source-line="42"><rect x="543.22" y="417.128" width="270.891" height="97.465" fill="#F1F1F1" style="stroke:#181818;stroke-width:0.5;" rx="2.5" ry="2.5"/><ellipse cx="626.601" cy="433.128" rx="11" ry="11" fill="#ADD1B2" style="stroke:#181818;stroke-width:1;"/><path d="M629.074,439.271 Q628.493,439.57 627.854,439.72 Q627.215,439.869 626.51,439.869 Q624.003,439.869 622.683,438.217 Q621.363,436.565 621.363,433.444 Q621.363,430.315 622.683,428.663 Q624.003,427.011 626.51,427.011 Q627.215,427.011 627.863,427.161 Q628.51,427.31 629.074,427.609 L629.074,430.331 Q628.444,429.75 627.85,429.481 Q627.257,429.211 626.626,429.211 Q625.281,429.211 624.596,430.277 Q623.911,431.344 623.911,433.444 Q623.911,435.536 624.596,436.603 Q625.281,437.669 626.626,437.669 Q627.257,437.669 627.85,437.4 Q628.444,437.13 629.074,436.549 Z " fill="#000"/><text x="647.101" y="438.419" fill="#000" font-size="14" textLength="95.628">CircuitBreaker</text><line x1="544.22" y1="449.128" x2="813.111" y2="449.128" style="stroke:#181818;stroke-width:0.5;"/><g data-visibility-modifier="PUBLIC_FIELD"><ellipse cx="554.22" cy="462.872" rx="3" ry="3" fill="none" style="stroke:#038048;stroke-width:1;"/></g><text x="563.22" y="466.663" fill="#000" font-size="14" textLength="138.373">failureThreshold: int</text><g data-visibility-modifier="PUBLIC_FIELD"><ellipse cx="554.22" cy="479.361" rx="3" ry="3" fill="none" style="stroke:#038048;stroke-width:1;"/></g><text x="563.22" y="483.152" fill="#000" font-size="14" textLength="97.392">cooldown: dur</text><line x1="544.22" y1="490.105" x2="813.111" y2="490.105" style="stroke:#181818;stroke-width:0.5;"/><g data-visibility-modifier="PUBLIC_METHOD"><ellipse cx="554.22" cy="503.849" rx="3" ry="3" fill="#84BE84" style="stroke:#038048;stroke-width:1;"/></g><text x="563.22" y="507.64" fill="#000" font-size="14" textLength="244.891">state: enum(closed|open|half-open)</text></g><g class="entity" data-qualified-name="GMN23" id="ent0024" data-source-line="57"><path d="M6,437.898 L6,493.83 A0,0 0 0 0 6,493.83 L263.336,493.83 A0,0 0 0 0 263.336,493.83 L263.336,447.898 L253.336,437.898 L192.01,437.898 L363.62,347.448 L184.01,437.898 L6,437.898 A0,0 0 0 0 6,437.898" style="stroke:#181818;stroke-width:0.5;" fill="#FEFFDD"/><path d="M253.336,437.898 L253.336,447.898 L263.336,447.898 L253.336,437.898" style="stroke:#181818;stroke-width:0.5;" fill="#FEFFDD"/><text x="12" y="455.467" fill="#000" font-size="13" textLength="226.25">Multipart upload => native resume.</text><text x="12" y="470.777" fill="#000" font-size="13" textLength="236.336">Server-side + client-side checksums.</text><text x="12" y="486.088" fill="#000" font-size="13" textLength="192.645">Works with AWS S3 and MinIO.</text></g><g class="entity" data-qualified-name="GMN26" id="ent0027" data-source-line="63"><path d="M849.47,435.538 L849.47,496.181 A0,0 0 0 0 849.47,496.181 L1211.873,496.181 A0,0 0 0 0 1211.873,496.181 L1211.873,445.538 L1201.873,435.538 L959.45,435.538 L737.98,349.308 L951.45,435.538 L849.47,435.538 A0,0 0 0 0 849.47,435.538" style="stroke:#181818;stroke-width:0.5;" fill="#FEFFDD"/><path d="M1201.873,435.538 L1201.873,445.538 L1211.873,445.538 L1201.873,435.538" style="stroke:#181818;stroke-width:0.5;" fill="#FEFFDD"/><text x="855.47" y="453.107" fill="#000" font-size="13" textLength="241.643">Block blobs (Put Block / Put Block List)</text><text x="855.47" y="472.284" fill="#000" font-size="17" textLength="341.403" font-weight="700">> resumable. Targets Azurite emulator</text><text x="855.47" y="488.439" fill="#000" font-size="13" textLength="127.835">and real Azure Blob.</text></g><!--reverse link BlobStore to DiskStore--><g class="link" data-entity-1="ent0001" data-entity-2="ent0003" id="lnk7" data-source-line="26" data-link-type="extension"><path d="M307.419,257.85 C298.409,280.08 296.41,285.018 290.11,300.578" style="stroke:#181818;stroke-width:1;stroke-dasharray:7,7;" fill="none" id="BlobStore-backto-DiskStore" codeLine="26"/><polygon points="314.18,241.168,301.858,255.596,312.979,260.104,314.18,241.168" fill="none" style="stroke:#181818;stroke-width:1;stroke-linejoin:miter;stroke-miterlimit:10;"/></g><!--reverse link BlobStore to SftpStore--><g class="link" data-entity-1="ent0001" data-entity-2="ent0004" id="lnk8" data-source-line="27" data-link-type="extension"><path d="M460.878,254.084 C482.458,276.314 490.92,285.018 506.03,300.578" style="stroke:#181818;stroke-width:1;stroke-dasharray:7,7;" fill="none" id="BlobStore-backto-SftpStore" codeLine="27"/><polygon points="448.34,241.168,456.573,258.263,465.183,249.904,448.34,241.168" fill="none" style="stroke:#181818;stroke-width:1;stroke-linejoin:miter;stroke-miterlimit:10;"/></g><!--reverse link BlobStore to S3Store--><g class="link" data-entity-1="ent0001" data-entity-2="ent0005" id="lnk9" data-source-line="28" data-link-type="extension"><path d="M386.787,258.464 C393.197,280.694 394.45,285.018 398.94,300.578" style="stroke:#181818;stroke-width:1;stroke-dasharray:7,7;" fill="none" id="BlobStore-backto-S3Store" codeLine="28"/><polygon points="381.8,241.168,381.022,260.126,392.552,256.801,381.8,241.168" fill="none" style="stroke:#181818;stroke-width:1;stroke-linejoin:miter;stroke-miterlimit:10;"/></g><!--reverse link BlobStore to AzureBlobStore--><g class="link" data-entity-1="ent0001" data-entity-2="ent0006" id="lnk10" data-source-line="29" data-link-type="extension"><path d="M530.001,241.458 C575.261,266.558 604.98,283.028 636.58,300.548" style="stroke:#181818;stroke-width:1;stroke-dasharray:7,7;" fill="none" id="BlobStore-backto-AzureBlobStore" codeLine="29"/><polygon points="514.26,232.728,527.091,246.705,532.911,236.211,514.26,232.728" fill="none" style="stroke:#181818;stroke-width:1;stroke-linejoin:miter;stroke-miterlimit:10;"/></g><!--reverse link ResumableTransfer to S3Store--><g class="link" data-entity-1="ent0002" data-entity-2="ent0005" id="lnk11" data-source-line="31" data-link-type="extension"><path d="M603.239,193.602 C576.689,211.172 560.14,222.098 531.67,240.888 C501.17,261.008 466.5,283.848 441.25,300.468" style="stroke:#181818;stroke-width:1;stroke-dasharray:7,7;" fill="none" id="ResumableTransfer-backto-S3Store" codeLine="31"/><polygon points="618.25,183.668,599.928,188.598,606.55,198.606,618.25,183.668" fill="none" style="stroke:#181818;stroke-width:1;stroke-linejoin:miter;stroke-miterlimit:10;"/></g><!--reverse link ResumableTransfer to AzureBlobStore--><g class="link" data-entity-1="ent0002" data-entity-2="ent0006" id="lnk12" data-source-line="32" data-link-type="extension"><path d="M678.67,201.228 C678.67,237.078 678.67,270.708 678.67,300.418" style="stroke:#181818;stroke-width:1;stroke-dasharray:7,7;" fill="none" id="ResumableTransfer-backto-AzureBlobStore" codeLine="32"/><polygon points="678.67,183.228,672.67,201.228,684.67,201.228,678.67,183.228" fill="none" style="stroke:#181818;stroke-width:1;stroke-linejoin:miter;stroke-miterlimit:10;"/></g><!--reverse link ResumableTransfer to SftpStore--><g class="link" data-entity-1="ent0002" data-entity-2="ent0004" id="lnk13" data-source-line="33" data-link-type="extension"><path d="M634.235,197.063 C604.395,232.913 572.93,270.708 548.2,300.418" style="stroke:#181818;stroke-width:1;stroke-dasharray:7,7;" fill="none" id="ResumableTransfer-backto-SftpStore" codeLine="33"/><polygon points="645.75,183.228,629.623,193.224,638.846,200.901,645.75,183.228" fill="none" style="stroke:#181818;stroke-width:1;stroke-linejoin:miter;stroke-miterlimit:10;"/></g><!--link DiskStore to RetryPolicy--><g class="link" data-entity-1="ent0003" data-entity-2="ent0014" id="lnk16" data-source-line="48" data-link-type="dependency"><path d="M301.26,349.148 C315.62,365.378 332.117,384.014 350.487,404.774" style="stroke:#181818;stroke-width:1;stroke-dasharray:7,7;" fill="none" id="DiskStore-to-RetryPolicy" codeLine="48"/><polygon points="353.8,408.518,350.831,399.127,350.487,404.774,344.84,404.429,353.8,408.518" fill="#181818" style="stroke:#181818;stroke-width:1;stroke-linejoin:miter;stroke-miterlimit:10;"/></g><!--link SftpStore to RetryPolicy--><g class="link" data-entity-1="ent0004" data-entity-2="ent0014" id="lnk17" data-source-line="49" data-link-type="dependency"><path d="M507.75,349.148 C493.15,365.378 476.363,384.041 457.693,404.801" style="stroke:#181818;stroke-width:1;stroke-dasharray:7,7;" fill="none" id="SftpStore-to-RetryPolicy" codeLine="49"/><polygon points="454.35,408.518,463.342,404.501,457.693,404.801,457.394,399.152,454.35,408.518" fill="#181818" style="stroke:#181818;stroke-width:1;stroke-linejoin:miter;stroke-miterlimit:10;"/></g><!--link S3Store to RetryPolicy--><g class="link" data-entity-1="ent0005" data-entity-2="ent0014" id="lnk18" data-source-line="50" data-link-type="dependency"><path d="M405.33,349.148 C405.1,365.378 404.852,382.759 404.552,403.519" style="stroke:#181818;stroke-width:1;stroke-dasharray:7,7;" fill="none" id="S3Store-to-RetryPolicy" codeLine="50"/><polygon points="404.48,408.518,408.61,399.577,404.552,403.519,400.61,399.461,404.48,408.518" fill="#181818" style="stroke:#181818;stroke-width:1;stroke-linejoin:miter;stroke-miterlimit:10;"/></g><!--link AzureBlobStore to RetryPolicy--><g class="link" data-entity-1="ent0006" data-entity-2="ent0014" id="lnk19" data-source-line="51" data-link-type="dependency"><path d="M632.33,349.308 C598.65,366.318 556.162,387.793 513.562,409.323" style="stroke:#181818;stroke-width:1;stroke-dasharray:7,7;" fill="none" id="AzureBlobStore-to-RetryPolicy" codeLine="51"/><polygon points="509.1,411.578,518.937,411.089,513.562,409.323,515.328,403.949,509.1,411.578" fill="#181818" style="stroke:#181818;stroke-width:1;stroke-linejoin:miter;stroke-miterlimit:10;"/></g><!--link SftpStore to CircuitBreaker--><g class="link" data-entity-1="ent0004" data-entity-2="ent0015" id="lnk20" data-source-line="52" data-link-type="dependency"><path d="M553.77,349.148 C573.62,367.538 598.342,390.441 623.032,413.311" style="stroke:#181818;stroke-width:1;stroke-dasharray:7,7;" fill="none" id="SftpStore-to-CircuitBreaker" codeLine="52"/><polygon points="626.7,416.708,622.816,407.658,623.032,413.311,617.379,413.527,626.7,416.708" fill="#181818" style="stroke:#181818;stroke-width:1;stroke-linejoin:miter;stroke-miterlimit:10;"/></g><!--link S3Store to CircuitBreaker--><g class="link" data-entity-1="ent0005" data-entity-2="ent0015" id="lnk21" data-source-line="53" data-link-type="dependency"><path d="M447.73,347.298 C483.92,365.718 533.034,390.73 579.474,414.37" style="stroke:#181818;stroke-width:1;stroke-dasharray:7,7;" fill="none" id="S3Store-to-CircuitBreaker" codeLine="53"/><polygon points="583.93,416.638,577.724,408.991,579.474,414.37,574.095,416.12,583.93,416.638" fill="#181818" style="stroke:#181818;stroke-width:1;stroke-linejoin:miter;stroke-miterlimit:10;"/></g><!--link AzureBlobStore to CircuitBreaker--><g class="link" data-entity-1="ent0006" data-entity-2="ent0015" id="lnk22" data-source-line="54" data-link-type="dependency"><path d="M678.67,349.148 C678.67,367.538 678.67,388.838 678.67,411.708" style="stroke:#181818;stroke-width:1;stroke-dasharray:7,7;" fill="none" id="AzureBlobStore-to-CircuitBreaker" codeLine="54"/><polygon points="678.67,416.708,682.67,407.708,678.67,411.708,674.67,407.708,678.67,416.708" fill="#181818" style="stroke:#181818;stroke-width:1;stroke-linejoin:miter;stroke-miterlimit:10;"/></g><?plantuml-src XLJ1Rjim3BtxAmWC658qTG-z1Lk1DDs602iQD1bw67QGPJfHBKk6HBVDrW7zY7tXlcIKupgsqs8-MNnFv2EV99yhKmed2aY4pDVELYQTMMqTlFjSVn4fqWWBwsYchSZXx_CVM99rOermmNlGf1xUmye9upDqCBE6d93aeqWPGfS9oKHjax09uLS4SBmaGID9ZsF8SNiqWUla3YNDJMO3kgZsu1ZS66n9dbaSlq5VQGgaBzWbFRGaZkz9NvLlMAN3J3qo_lr7lzWbQYJiYa7dh0lGt2YwuaoA1zIJ-wtaIQJpoqRieeLLEWR3aeDO3dvQYNNWp6nHXYg3P84TLWUzJHEUzW6vbVQxEzcmgn29njQ0Ui9rk6bBRb3cfUKzeP2pQuVUrxfQOCJ8Iu9W3eOYKWlluLBvlBQkMIypAdlhi-vg-hDosBeTHNlZFpp5SIVP0DXd7G9dhuQ7TGx7qDlz1Zp8ybQILblJv0sIsowiLdAxctOX7gT4MF0Hd02FCyGIuP4FbzZ2AJ1U_quWhUgZTQUOxYQGMAl3seMCeVA8BJvgugq5C-LafUZ2eSXV3FR19JuHfYf6KbkFwPCjqJnjXCvEmjzHO6L2QMvnjM7BDrQdhJh91LBxO7QAk5Bh3CJnURV3g6t_43bxFTuVwtyIzflhvHn0hwGTC29Z2NbuHBO0cxNs0xIt2QhwyiB7Sp22r3s2gwzApAGbkdjq9rwb2CSWjK93krLzXPZc0-tMkjp3Ww8DJ6-NN0I4IU5AcVbr7F5p2475WPR1MOFm9ieS4evu6F7zRmAdiFyFxrVmaSMwbxCPmqguDTBkhYckWKMb1TLlLX32iz2xQlMpsv7q3m00?></g></svg>